<svg id="Layer_1" xmlns="http://www.w3.org/2000/svg" viewBox="0 0 300 300"><defs><style>.cls-1{fill:#257a7e;}</style></defs><path class="cls-1" d="M137.64,31.28c1.71,3.91,1.63,8.39-.06,12.69-1.59-.73-3.22-1.62-4.81-2.69,.91-2.68,.92-5.36-.06-7.69,1.46-1.2,2.99-2.27,4.49-3.23,.16,.3,.3,.61,.44,.92Z"/><path class="cls-1" d="M130.31,23.62c-1.67,1.15-3.34,2.42-4.94,3.82-1.29-.41-2.69-.68-4.19-.78-5.67-.39-11.43,1.78-15.79,5.95-1.21,1.15-2.55,2.52-3.92,4.07-1.47-1.12-3.12-1.99-4.9-2.62,1.76-2.08,3.52-3.9,5.07-5.38,5.46-5.22,12.72-7.93,19.91-7.44,3.26,.22,6.23,1.05,8.76,2.38Z"/><path class="cls-1" d="M101.47,36.68c-.21,.25-.43,.5-.65,.76-1.48-1.12-3.14-1.97-4.95-2.55,.23-.28,.46-.56,.7-.83,1.78,.63,3.43,1.5,4.9,2.62Z"/><path class="cls-1" d="M100.17,38.21c-1.12,1.36-2.22,2.82-3.23,4.37-1.43-1.08-3.19-1.77-5.15-2.05,1.07-1.71,2.23-3.31,3.41-4.8,1.82,.54,3.5,1.37,4.97,2.48Z"/><path class="cls-1" d="M100.82,37.44c-.22,.25-.43,.51-.65,.77-1.47-1.11-3.15-1.94-4.97-2.48,.22-.29,.45-.57,.67-.84,1.81,.58,3.47,1.43,4.95,2.55Z"/><path class="cls-1" d="M96.94,42.58c-.19,.28-.37,.56-.54,.84-1.41-1.07-3.17-1.73-5.17-1.96,.18-.32,.37-.63,.56-.93,1.96,.28,3.72,.97,5.15,2.05Z"/><path class="cls-1" d="M96.4,43.42c-.18,.28-.35,.57-.53,.85-1.37-1.08-3.16-1.71-5.19-1.86,.18-.32,.36-.64,.55-.95,2,.23,3.76,.89,5.17,1.96Z"/><path class="cls-1" d="M95.87,44.27c-.67,1.13-1.29,2.3-1.83,3.5-.62,1.36-2.23,1.97-3.6,1.36-1.36-.62-1.97-2.24-1.35-3.6,.48-1.07,1.02-2.11,1.59-3.12,2.03,.15,3.82,.78,5.19,1.86Z"/><path class="cls-1" d="M127.42,49.04c1.62,1.11,3.26,2.05,4.88,2.85-4.56,4.61-10.81,7.44-17.66,7.98-2.27,.18-5.02,.24-8.04-.04,.69-1.78,1.17-3.57,1.43-5.33,2.3,.15,4.41,.1,6.18-.04,5.05-.4,9.67-2.31,13.21-5.42Z"/><path class="cls-1" d="M107.03,54.42c.34,.03,.67,.06,1,.08-.26,1.76-.74,3.55-1.43,5.33-.34-.02-.68-.06-1.03-.1,.71-1.78,1.2-3.56,1.46-5.31Z"/><path class="cls-1" d="M106.04,54.31c.33,.05,.66,.08,.99,.11-.26,1.75-.75,3.53-1.46,5.31-.34-.04-.68-.08-1.02-.13,.72-1.77,1.22-3.54,1.49-5.29Z"/><path class="cls-1" d="M106.04,54.31c-.27,1.75-.77,3.52-1.49,5.29-1.76-.23-3.58-.59-5.44-1.11,.81-1.76,1.34-3.51,1.58-5.2,1.83,.5,3.63,.83,5.35,1.02Z"/><path class="cls-1" d="M99.73,53.01c.32,.1,.64,.2,.96,.28-.24,1.69-.77,3.44-1.58,5.2-.33-.09-.65-.18-.98-.28,0-.03,.03-.05,.04-.08,.82-1.73,1.34-3.47,1.56-5.12Z"/><path class="cls-1" d="M98.77,52.71c-.2,1.6-.7,3.29-1.5,4.99-.03,.07-.06,.13-.1,.2-1.16-.39-2.33-.84-3.49-1.37-.62-.28-1.1-.77-1.37-1.39-.31-.7-.3-1.51,.02-2.21,.3-.66,.83-1.16,1.51-1.42,.04-.01,.08-.03,.12-.04,.65-.21,1.34-.17,1.96,.11,.95,.43,1.9,.8,2.85,1.13Z"/><path class="cls-1" d="M98.77,52.71c.32,.11,.64,.21,.96,.3-.22,1.65-.74,3.39-1.56,5.12-.01,.03-.03,.05-.04,.08-.32-.1-.64-.2-.96-.31,.04-.07,.07-.13,.1-.2,.8-1.7,1.3-3.39,1.5-4.99Z"/><path class="cls-1" d="M79.04,69.96c-1.71,.35-3.54,.59-5.45,.66-.84-2.71-2.41-4.88-4.57-6.2,.48-1.82,1.08-3.59,1.74-5.24,.3,.15,.6,.31,.89,.48,3.69,2.17,6.25,5.83,7.39,10.3Z"/><path class="cls-1" d="M84,35.67c3.17-.8,6.25-.93,9.07-.45-1.24,1.6-2.43,3.33-3.52,5.16-1.35,0-2.78,.19-4.23,.56-5.52,1.38-10.32,5.22-13.18,10.53-.79,1.47-1.64,3.2-2.46,5.09-1.75-.61-3.59-.94-5.49-.97,1.03-2.53,2.15-4.81,3.17-6.69,3.58-6.65,9.64-11.47,16.64-13.23Z"/><path class="cls-1" d="M66.69,65.51c-.29,1.28-.51,2.58-.66,3.89-.17,1.49-1.51,2.57-3,2.4s-2.57-1.51-2.4-3c.13-1.17,.31-2.32,.55-3.46,1.98-.48,3.88-.43,5.51,.17Z"/><path class="cls-1" d="M69.68,56.56c-.14,.3-.27,.61-.39,.93-1.75-.61-3.6-.91-5.5-.91,.13-.34,.26-.67,.4-.99,1.9,.03,3.74,.36,5.49,.97Z"/><path class="cls-1" d="M67.17,63.57c-.09,.32-.17,.64-.25,.96-1.67-.58-3.55-.67-5.51-.26,.07-.36,.16-.72,.25-1.07,1.95-.33,3.83-.21,5.51,.37Z"/><path class="cls-1" d="M68.91,58.41c-.65,1.64-1.24,3.37-1.74,5.16-1.68-.58-3.56-.7-5.51-.37,.48-1.95,1.08-3.83,1.75-5.61,1.9-.05,3.76,.22,5.5,.82Z"/><path class="cls-1" d="M69.29,57.49c-.14,.3-.26,.61-.38,.92-1.74-.6-3.6-.87-5.5-.82,.12-.34,.25-.68,.38-1.01,1.9,0,3.75,.3,5.5,.91Z"/><path class="cls-1" d="M66.92,64.53c-.08,.33-.16,.65-.23,.98-1.63-.6-3.53-.65-5.51-.17,.06-.36,.14-.72,.23-1.07,1.96-.41,3.84-.32,5.51,.26Z"/><path class="cls-1" d="M103.68,61.51c-2.92,5.8-7.98,10.41-14.32,13.04-2.1,.87-4.7,1.78-7.65,2.45,.1-1.91,0-3.76-.3-5.52,2.24-.56,4.22-1.27,5.87-1.95,4.68-1.94,8.47-5.18,10.88-9.23,1.88,.55,3.73,.94,5.52,1.21Z"/><path class="cls-1" d="M81.41,71.48c.3,1.76,.4,3.61,.3,5.52-.33,.08-.67,.15-1.01,.22,.12-1.91,.03-3.76-.26-5.51,.33-.07,.65-.15,.97-.23Z"/><path class="cls-1" d="M79.45,71.93c.29,1.74,.36,3.58,.22,5.48-1.74,.32-3.59,.54-5.51,.62,.23-1.92,.2-3.75-.09-5.43,1.89-.09,3.69-.33,5.38-.67Z"/><path class="cls-1" d="M80.44,71.71c.29,1.75,.38,3.6,.26,5.51-.34,.07-.68,.13-1.03,.19,.14-1.9,.07-3.74-.22-5.48,.33-.07,.66-.14,.99-.22Z"/><path class="cls-1" d="M74.07,72.6c.29,1.68,.32,3.51,.09,5.43-.33,.02-.67,.03-1.01,.03,0-.03,.01-.05,.01-.08,.24-1.9,.2-3.71-.11-5.35,.35,0,.69-.01,1.02-.03Z"/><path class="cls-1" d="M73.05,72.63c.31,1.64,.35,3.45,.11,5.35,0,.03-.01,.05-.01,.08-.33,.01-.67,.01-1.01,.01,.01-.07,.02-.15,.03-.22,.23-1.87,.18-3.63-.13-5.22,.34,0,.67,0,1.01,0Z"/><path class="cls-1" d="M72.04,72.63c.31,1.59,.36,3.35,.13,5.22-.01,.07-.02,.15-.03,.22-1.23-.01-2.48-.08-3.75-.23-.67-.07-1.28-.39-1.73-.89-.51-.58-.75-1.35-.67-2.11,.08-.72,.44-1.37,1.01-1.82,.03-.03,.06-.05,.1-.08,.55-.4,1.22-.57,1.89-.5,1.03,.12,2.05,.18,3.05,.19Z"/><path class="cls-1" d="M58.64,95.13c-1.52,.87-3.19,1.66-4.99,2.32-1.64-2.31-3.8-3.9-6.27-4.47-.11-1.88-.09-3.75,.03-5.53,.34,.05,.67,.11,1,.18,4.17,.92,7.74,3.61,10.23,7.5Z"/><path class="cls-1" d="M45.42,93.72c-1.77-.04-3.59,.47-5.33,1.47-.04-.37-.07-.74-.09-1.1,1.75-.92,3.58-1.39,5.36-1.37,.01,.34,.03,.67,.06,1Z"/><path class="cls-1" d="M61.22,57.78c-.68,1.9-1.28,3.91-1.75,5.98-1.28,.43-2.58,1.04-3.85,1.84-4.81,3.02-8.2,8.16-9.27,14.09-.3,1.64-.58,3.54-.78,5.6-1.85-.04-3.7,.22-5.52,.77,.2-2.73,.56-5.24,.95-7.34,1.35-7.43,5.63-13.89,11.74-17.72,2.76-1.74,5.66-2.82,8.48-3.22Z"/><path class="cls-1" d="M39.93,88.21c1.8-.63,3.65-.95,5.49-.93-.12,1.75-.15,3.58-.06,5.44-1.78-.02-3.61,.45-5.36,1.37-.14-2-.15-3.98-.07-5.88Z"/><path class="cls-1" d="M40.05,86.06c1.82-.55,3.67-.81,5.52-.77-.03,.33-.06,.66-.08,1-1.85-.04-3.71,.25-5.51,.85,.02-.37,.05-.73,.07-1.08Z"/><path class="cls-1" d="M46.07,98.63c.3,1.47-.64,2.91-2.11,3.21s-2.91-.65-3.21-2.11c-.24-1.15-.42-2.3-.55-3.46,1.73-1.07,3.55-1.61,5.29-1.54,.13,1.3,.31,2.61,.58,3.9Z"/><path class="cls-1" d="M45.49,94.73c-1.74-.07-3.56,.47-5.29,1.54-.05-.36-.08-.72-.11-1.08,1.74-1,3.56-1.51,5.33-1.47,.02,.34,.04,.67,.07,1.01Z"/><path class="cls-1" d="M39.98,87.14c1.8-.6,3.66-.89,5.51-.85-.03,.32-.06,.65-.07,.99-1.84-.02-3.69,.3-5.49,.93,.01-.36,.03-.72,.05-1.07Z"/><path class="cls-1" d="M62.43,101.52c-.29,.18-.6,.35-.91,.5-.45-1.85-1.09-3.57-1.89-5.14,.29-.17,.58-.33,.86-.5,.81,1.58,1.46,3.3,1.94,5.14Z"/><path class="cls-1" d="M56.47,104.32c-.32,.13-.64,.24-.96,.35,0-.03,0-.06-.01-.09-.36-1.88-.96-3.58-1.74-5.05,.32-.11,.64-.22,.95-.34,.79,1.51,1.39,3.24,1.76,5.13Z"/><path class="cls-1" d="M59.63,96.88c.8,1.57,1.44,3.29,1.89,5.14-1.56,.85-3.25,1.63-5.05,2.3-.37-1.89-.97-3.62-1.76-5.13,1.77-.67,3.42-1.47,4.92-2.31Z"/><path class="cls-1" d="M55.5,104.58s.01,.06,.01,.09c-.32,.11-.64,.22-.96,.31,0-.07-.02-.14-.03-.21-.35-1.84-.94-3.5-1.73-4.92,.33-.1,.65-.21,.97-.32,.78,1.47,1.38,3.17,1.74,5.05Z"/><path class="cls-1" d="M54.52,104.77c.01,.07,.03,.14,.03,.21-1.17,.38-2.38,.7-3.63,.95-.18,.04-.36,.05-.54,.05-.48,0-.96-.12-1.38-.37-.66-.39-1.13-1.04-1.28-1.8-.15-.71,0-1.43,.39-2.04,.02-.03,.05-.07,.07-.1,.4-.55,.98-.93,1.65-1.06,1.02-.21,2-.47,2.96-.76,.79,1.42,1.38,3.08,1.73,4.92Z"/><path class="cls-1" d="M79.43,79.48c-.97,6.41-4.35,12.36-9.58,16.83-1.72,1.48-3.92,3.14-6.52,4.69-.49-1.84-1.16-3.57-1.98-5.15,1.95-1.22,3.62-2.51,4.97-3.66,3.85-3.3,6.46-7.55,7.49-12.14,1.96-.07,3.84-.27,5.62-.57Z"/><path class="cls-1" d="M63.33,101c-.29,.18-.59,.36-.9,.52-.48-1.84-1.13-3.56-1.94-5.14,.29-.17,.58-.35,.86-.53,.82,1.58,1.49,3.31,1.98,5.15Z"/><path class="cls-1" d="M46.99,125.4c-1.19,1.29-2.53,2.56-4.04,3.73-2.27-1.7-4.81-2.53-7.33-2.32-.69-1.76-1.24-3.53-1.68-5.26,.33-.06,.67-.11,1.01-.14,4.25-.42,8.48,1.04,12.04,3.99Z"/><path class="cls-1" d="M33.63,127.2c.11,.31,.23,.62,.36,.93-1.7,.51-3.28,1.55-4.62,3.04-.15-.34-.29-.68-.43-1.02,1.39-1.42,2.98-2.43,4.69-2.95Z"/><path class="cls-1" d="M37.9,89.07c-.05,2.02,0,4.12,.19,6.23-1.09,.8-2.13,1.78-3.09,2.93-3.65,4.36-5.28,10.29-4.47,16.27,.22,1.65,.54,3.55,.99,5.56-1.77,.53-3.45,1.35-5,2.43-.65-2.65-1.08-5.15-1.37-7.26-1.01-7.49,1.06-14.95,5.68-20.48,2.1-2.5,4.51-4.42,7.07-5.68Z"/><path class="cls-1" d="M33.99,128.13c.12,.31,.25,.62,.38,.93-1.68,.48-3.24,1.55-4.55,3.11-.16-.33-.31-.66-.45-1,1.34-1.49,2.92-2.53,4.62-3.04Z"/><path class="cls-1" d="M31.75,121.04c.07,.32,.16,.65,.24,.97-1.76,.55-3.42,1.41-4.93,2.56-.1-.35-.2-.7-.28-1.04,1.54-1.11,3.21-1.95,4.97-2.49Z"/><path class="cls-1" d="M36.12,132.6c.74,1.3,.29,2.96-1.01,3.7-1.31,.74-2.97,.29-3.71-1.02-.58-1.01-1.11-2.06-1.58-3.11,1.31-1.56,2.87-2.63,4.55-3.11,.52,1.2,1.1,2.39,1.75,3.54Z"/><path class="cls-1" d="M31.52,120.06c.07,.32,.15,.65,.23,.98-1.76,.54-3.43,1.38-4.97,2.49-.1-.35-.18-.7-.26-1.04,1.55-1.08,3.23-1.9,5-2.43Z"/><path class="cls-1" d="M31.99,122.01c.44,1.7,.98,3.46,1.64,5.19-1.71,.52-3.3,1.53-4.69,2.95-.75-1.86-1.37-3.74-1.88-5.58,1.51-1.15,3.17-2.01,4.93-2.56Z"/><path class="cls-1" d="M61.94,104.07c1.05,6.4-.33,13.11-3.92,18.98-1.18,1.93-2.76,4.19-4.75,6.47-1.04-1.6-2.21-3.04-3.48-4.29,1.48-1.77,2.67-3.5,3.6-5.02,2.64-4.33,3.81-9.18,3.37-13.87,1.84-.65,3.57-1.43,5.18-2.27Z"/><path class="cls-1" d="M52.58,130.29c-.22,.25-.46,.5-.71,.75-1-1.61-2.15-3.05-3.39-4.3,.23-.25,.45-.5,.67-.74,1.25,1.25,2.4,2.68,3.43,4.29Z"/><path class="cls-1" d="M48.48,126.74c1.24,1.25,2.39,2.69,3.39,4.3-1.22,1.29-2.59,2.56-4.1,3.76-.93-1.69-2.05-3.16-3.27-4.35,1.48-1.17,2.8-2.44,3.98-3.71Z"/><path class="cls-1" d="M53.27,129.52c-.22,.26-.45,.51-.69,.77-1.03-1.61-2.18-3.04-3.43-4.29,.22-.26,.43-.51,.64-.77,1.27,1.25,2.44,2.69,3.48,4.29Z"/><path class="cls-1" d="M46.06,135.82c.03,.06,.07,.12,.1,.19-1,.72-2.06,1.4-3.17,2.03-.41,.23-.87,.35-1.34,.35-.19,0-.39-.02-.58-.06-.75-.17-1.4-.64-1.78-1.31-.36-.63-.45-1.37-.26-2.07,.01-.04,.03-.08,.04-.12,.21-.64,.65-1.18,1.24-1.52,.9-.51,1.76-1.06,2.58-1.64,1.18,1.11,2.26,2.51,3.17,4.15Z"/><path class="cls-1" d="M46.93,135.34s.03,.05,.04,.08c-.26,.2-.53,.4-.81,.59-.03-.07-.07-.13-.1-.19-.91-1.64-1.99-3.04-3.17-4.15,.27-.19,.54-.39,.81-.6,1.21,1.15,2.31,2.59,3.23,4.27Z"/><path class="cls-1" d="M47.77,134.8c-.26,.21-.52,.42-.8,.62,0-.03-.03-.05-.04-.08-.92-1.68-2.02-3.12-3.23-4.27,.27-.19,.54-.4,.8-.62,1.22,1.19,2.34,2.66,3.27,4.35Z"/><path class="cls-1" d="M45.27,157.76c-.73,1.59-1.61,3.22-2.69,4.81-2.68-.91-5.36-.92-7.69,.06-1.19-1.46-2.27-2.99-3.23-4.49,.3-.16,.61-.3,.92-.44,3.92-1.71,8.4-1.63,12.69,.06Z"/><path class="cls-1" d="M48.92,166.46c-.18,.28-.37,.56-.57,.84l-.06-.06c-1.4-1.3-2.89-2.33-4.4-3.05,.2-.28,.39-.56,.57-.84,1.54,.75,3.04,1.8,4.46,3.11Z"/><path class="cls-1" d="M37.16,167.97c1.1,1.01,1.18,2.74,.18,3.84-1.01,1.11-2.74,1.19-3.84,.18-.87-.79-1.7-1.62-2.48-2.48,.78-1.88,1.93-3.39,3.38-4.36,.87,.99,1.79,1.94,2.76,2.82Z"/><path class="cls-1" d="M33.12,163.61c.2,.26,.41,.52,.63,.78-1.46,1-2.64,2.48-3.46,4.32-.24-.28-.48-.56-.71-.84,.87-1.78,2.07-3.24,3.54-4.26Z"/><path class="cls-1" d="M29.96,159.18c.94,1.48,1.99,2.98,3.16,4.43-1.47,1.02-2.67,2.48-3.54,4.26-1.3-1.54-2.47-3.14-3.52-4.72,1.09-1.57,2.4-2.91,3.9-3.97Z"/><path class="cls-1" d="M33.75,164.39c.21,.26,.43,.51,.65,.76-1.45,.97-2.6,2.48-3.38,4.36-.25-.26-.49-.53-.73-.8,.82-1.84,2-3.32,3.46-4.32Z"/><path class="cls-1" d="M29.43,158.33c.17,.28,.35,.56,.53,.85-1.5,1.06-2.81,2.4-3.9,3.97-.21-.3-.4-.6-.59-.9,1.12-1.54,2.45-2.86,3.96-3.92Z"/><path class="cls-1" d="M26.25,152.49c.73,1.5,1.61,3.2,2.66,4.98-1.52,1.05-2.87,2.36-4.01,3.87-1.44-2.33-2.62-4.56-3.55-6.49-3.27-6.81-3.61-14.55-.92-21.24,1.22-3.03,2.92-5.6,4.97-7.6,.57,1.94,1.26,3.92,2.1,5.88-.79,1.1-1.47,2.35-2.03,3.75-2.12,5.27-1.84,11.42,.78,16.85Z"/><path class="cls-1" d="M28.91,157.47c.17,.29,.34,.57,.52,.86-1.51,1.06-2.84,2.38-3.96,3.92-.2-.3-.39-.61-.57-.91,1.14-1.51,2.49-2.82,4.01-3.87Z"/><path class="cls-1" d="M52.1,160.7c-.14,.31-.29,.63-.44,.94-1.46-1.23-2.99-2.26-4.57-3.05,.14-.31,.28-.61,.41-.91,1.58,.8,3.13,1.81,4.6,3.02Z"/><path class="cls-1" d="M52.9,132.86c2.98,5.77,3.73,12.57,2.13,19.26-.52,2.21-1.32,4.86-2.51,7.64-1.48-1.2-3.04-2.21-4.64-3.01,.86-2.14,1.45-4.17,1.87-5.89,1.18-4.93,.8-9.91-1.07-14.23,1.55-1.2,2.96-2.48,4.22-3.77Z"/><path class="cls-1" d="M51.66,161.64c-.77,1.6-1.67,3.22-2.74,4.82-1.42-1.31-2.92-2.36-4.46-3.11,1.04-1.58,1.91-3.19,2.63-4.76,1.58,.79,3.11,1.82,4.57,3.05Z"/><path class="cls-1" d="M52.52,159.76c-.13,.31-.27,.63-.42,.94-1.47-1.21-3.02-2.22-4.6-3.02,.13-.32,.26-.63,.38-.93,1.6,.8,3.16,1.81,4.64,3.01Z"/><path class="cls-1" d="M48.29,167.24l.06,.06c-.19,.27-.39,.55-.6,.82l-.15-.15c-1.37-1.29-2.83-2.28-4.3-2.97,.21-.27,.41-.54,.59-.81,1.51,.72,3,1.75,4.4,3.05Z"/><path class="cls-1" d="M47.6,167.97l.15,.15c-.72,.99-1.52,1.96-2.38,2.91-.45,.49-1.07,.8-1.73,.87h0c-.76,.07-1.53-.18-2.09-.7-.54-.49-.85-1.16-.89-1.88v-.13c0-.68,.25-1.32,.71-1.83,.7-.77,1.35-1.56,1.94-2.36,1.47,.69,2.93,1.68,4.3,2.97Z"/><path class="cls-1" d="M41.55,192.94c3.2-2.84,7.48-4.15,12.09-3.86-.2,1.74-.54,3.56-1.08,5.41-2.83-.05-5.38,.77-7.29,2.43-1.58-1.02-3.08-2.14-4.45-3.28,.23-.24,.48-.47,.73-.7Z"/><path class="cls-1" d="M49.07,201.3c1.37,.62,1.98,2.23,1.36,3.59-.62,1.37-2.23,1.98-3.6,1.36-1.06-.48-2.1-1.01-3.11-1.59,.15-2.03,.78-3.82,1.85-5.19,1.13,.67,2.3,1.29,3.5,1.83Z"/><path class="cls-1" d="M38.74,194.52c.26,.22,.52,.43,.78,.64-1.11,1.47-1.94,3.15-2.49,4.98-.29-.22-.57-.45-.84-.67,.58-1.81,1.44-3.47,2.55-4.95Z"/><path class="cls-1" d="M43.88,198.4c.28,.19,.56,.37,.84,.54-1.07,1.41-1.73,3.18-1.95,5.17-.32-.18-.63-.37-.94-.56,.28-1.96,.97-3.72,2.05-5.15Z"/><path class="cls-1" d="M43.88,198.4c-1.08,1.43-1.77,3.19-2.05,5.15-1.7-1.07-3.31-2.23-4.8-3.41,.55-1.83,1.38-3.51,2.49-4.98,1.35,1.13,2.81,2.23,4.36,3.24Z"/><path class="cls-1" d="M37.99,193.86l.75,.66c-1.11,1.48-1.97,3.14-2.55,4.95-.28-.23-.56-.46-.83-.7,.63-1.79,1.5-3.44,2.63-4.91Z"/><path class="cls-1" d="M37.99,193.86c-1.13,1.47-2,3.12-2.63,4.91-2.08-1.76-3.89-3.52-5.37-5.07-5.22-5.46-7.94-12.72-7.44-19.91,.22-3.26,1.04-6.23,2.37-8.76,1.15,1.67,2.42,3.34,3.82,4.94-.41,1.29-.67,2.69-.77,4.19-.39,5.67,1.78,11.42,5.94,15.78,1.15,1.21,2.53,2.56,4.08,3.92Z"/><path class="cls-1" d="M61.18,180.7c.18,2.27,.23,5.02-.04,8.04-1.79-.69-3.58-1.17-5.34-1.43,.16-2.3,.1-4.41-.04-6.18-.4-5.05-2.31-9.67-5.41-13.21,1.1-1.62,2.04-3.26,2.84-4.87,4.62,4.55,7.44,10.8,7.99,17.65Z"/><path class="cls-1" d="M61.14,188.74c-.03,.34-.06,.68-.11,1.03-1.78-.71-3.55-1.2-5.3-1.46,.03-.34,.06-.67,.07-1,1.76,.26,3.55,.74,5.34,1.43Z"/><path class="cls-1" d="M61.03,189.77c-.03,.34-.07,.68-.12,1.02-1.77-.72-3.54-1.21-5.28-1.49,.04-.33,.07-.66,.1-.99,1.75,.26,3.52,.75,5.3,1.46Z"/><path class="cls-1" d="M59.79,196.23c-.08,.32-.18,.64-.28,.97-.03-.01-.05-.03-.08-.04-1.73-.81-3.46-1.33-5.11-1.55,.1-.32,.19-.64,.28-.96,1.68,.24,3.44,.77,5.19,1.58Z"/><path class="cls-1" d="M60.91,190.79c-.24,1.76-.6,3.58-1.12,5.44-1.75-.81-3.51-1.34-5.19-1.58,.5-1.83,.83-3.63,1.03-5.35,1.74,.28,3.51,.77,5.28,1.49Z"/><path class="cls-1" d="M59.01,198.07c.06,.03,.13,.06,.19,.09-.39,1.16-.84,2.33-1.37,3.5-.28,.62-.77,1.1-1.38,1.37-.71,.31-1.51,.3-2.22-.02-.66-.3-1.16-.84-1.42-1.51,0-.04-.02-.08-.04-.12-.21-.65-.17-1.34,.11-1.96,.43-.95,.81-1.9,1.13-2.85,1.61,.2,3.3,.7,5,1.5Z"/><path class="cls-1" d="M59.51,197.2c-.1,.32-.2,.64-.31,.96-.06-.03-.13-.06-.19-.09-1.7-.8-3.39-1.3-5-1.5,.11-.32,.21-.64,.31-.96,1.65,.22,3.38,.74,5.11,1.55,.03,.01,.05,.03,.08,.04Z"/><path class="cls-1" d="M71.27,216.29c.34,1.71,.58,3.55,.65,5.46-2.71,.84-4.88,2.41-6.2,4.57-1.81-.48-3.58-1.08-5.23-1.74,.15-.3,.31-.6,.48-.89,2.16-3.69,5.82-6.25,10.3-7.4Z"/><path class="cls-1" d="M57.86,225.66c.3,.14,.61,.27,.93,.39-.61,1.74-.91,3.59-.91,5.49-.34-.12-.66-.25-.99-.39,.03-1.89,.36-3.74,.97-5.49Z"/><path class="cls-1" d="M57.86,225.66c-.61,1.75-.94,3.6-.97,5.49-2.53-1.03-4.8-2.15-6.69-3.17-6.65-3.58-11.47-9.64-13.23-16.64-.79-3.17-.93-6.25-.45-9.07,1.6,1.24,3.33,2.43,5.16,3.52,.01,1.35,.19,2.78,.56,4.23,1.39,5.52,5.23,10.32,10.54,13.18,1.46,.79,3.18,1.64,5.08,2.46Z"/><path class="cls-1" d="M58.79,226.05c.31,.14,.62,.26,.93,.38-.6,1.74-.87,3.59-.82,5.5-.35-.12-.69-.25-1.02-.38h0c0-1.91,.3-3.76,.91-5.5Z"/><path class="cls-1" d="M70.71,229.31c1.48,.17,2.56,1.51,2.4,3-.17,1.49-1.52,2.57-3.01,2.4-1.16-.13-2.31-.31-3.45-.55-.48-1.98-.43-3.87,.16-5.51,1.28,.29,2.59,.51,3.9,.66Z"/><path class="cls-1" d="M64.87,228.16c.32,.09,.64,.18,.96,.26-.58,1.67-.66,3.55-.25,5.51-.36-.07-.72-.16-1.08-.25-.33-1.95-.21-3.83,.37-5.52Z"/><path class="cls-1" d="M64.87,228.16c-.58,1.69-.7,3.57-.37,5.52-1.94-.49-3.82-1.09-5.6-1.75-.05-1.91,.22-3.76,.82-5.5,1.63,.65,3.36,1.24,5.15,1.73Z"/><path class="cls-1" d="M65.83,228.42c.32,.08,.65,.16,.98,.23-.59,1.64-.64,3.53-.16,5.51-.36-.06-.72-.14-1.07-.23-.41-1.96-.33-3.84,.25-5.51Z"/><path class="cls-1" d="M78.72,215.66c.31,1.74,.54,3.59,.62,5.52-1.92-.23-3.75-.2-5.44,.09-.09-1.89-.33-3.7-.68-5.39,1.74-.28,3.59-.36,5.5-.22Z"/><path class="cls-1" d="M78.3,213.63c-1.91-.1-3.76,0-5.52,.29-.56-2.23-1.27-4.22-1.95-5.86-1.94-4.68-5.18-8.48-9.23-10.88,.55-1.88,.94-3.74,1.21-5.52,5.8,2.92,10.41,7.98,13.04,14.32,.87,2.1,1.78,4.7,2.45,7.65Z"/><path class="cls-1" d="M79.16,223.17c.07,.01,.15,.02,.22,.03-.01,1.23-.08,2.48-.23,3.75-.08,.67-.4,1.28-.9,1.73-.57,.51-1.34,.75-2.11,.67-.72-.08-1.36-.44-1.82-1.01-.02-.03-.05-.06-.07-.1-.4-.55-.58-1.22-.5-1.89,.11-1.03,.17-2.05,.18-3.05,1.59-.31,3.36-.36,5.23-.13Z"/><path class="cls-1" d="M79.37,222.19s-.06-.01-.09-.01c-1.9-.24-3.71-.2-5.35,.11,0-.35-.01-.69-.03-1.02,1.69-.29,3.52-.32,5.44-.09,.02,.33,.03,.67,.03,1.01Z"/><path class="cls-1" d="M78.52,214.64c.07,.33,.14,.67,.2,1.02-1.91-.14-3.76-.06-5.5,.22-.06-.33-.13-.66-.2-.98,1.75-.29,3.6-.38,5.5-.26Z"/><path class="cls-1" d="M78.3,213.63c.08,.33,.15,.67,.22,1.01-1.9-.12-3.75-.03-5.5,.26-.08-.33-.16-.66-.24-.98,1.76-.29,3.61-.39,5.52-.29Z"/><path class="cls-1" d="M79.37,222.19c.01,.33,.01,.67,.01,1.01-.07-.01-.15-.02-.22-.03-1.87-.23-3.64-.18-5.23,.13,.01-.34,.01-.67,0-1.01,1.64-.31,3.45-.35,5.35-.11,.03,0,.06,.01,.09,.01Z"/><path class="cls-1" d="M98.75,241.7c-2.31,1.64-3.89,3.8-4.47,6.26-1.88,.11-3.75,.09-5.53-.03,.05-.34,.11-.67,.18-1,.92-4.18,3.61-7.75,7.51-10.23,.86,1.52,1.65,3.19,2.31,5Z"/><path class="cls-1" d="M103.15,251.38c.3,1.47-.65,2.91-2.12,3.21-1.14,.24-2.3,.42-3.45,.55h-.01c-1.06-1.73-1.6-3.54-1.54-5.29,1.31-.13,2.62-.31,3.91-.58,1.46-.3,2.9,.64,3.21,2.11Z"/><path class="cls-1" d="M88.44,255.36c-.37-.02-.73-.05-1.08-.07-.55-1.82-.81-3.67-.77-5.52,.33,.03,.67,.06,1.01,.08-.04,1.85,.25,3.71,.84,5.51Z"/><path class="cls-1" d="M88.58,249.92c-.02,1.84,.3,3.69,.93,5.49-.36-.01-.72-.03-1.07-.05-.59-1.8-.88-3.66-.84-5.51,.32,.03,.65,.06,.98,.07Z"/><path class="cls-1" d="M86.59,249.77c-.04,1.85,.22,3.7,.77,5.52-2.73-.21-5.23-.57-7.33-.95-7.44-1.35-13.9-5.63-17.73-11.74-1.73-2.77-2.81-5.65-3.22-8.48,1.9,.68,3.91,1.28,5.98,1.75,.43,1.28,1.04,2.58,1.84,3.85,3.03,4.81,8.16,8.2,14.1,9.27,1.64,.3,3.54,.58,5.59,.78Z"/><path class="cls-1" d="M97.57,255.14c-.36,.05-.72,.08-1.08,.11-1-1.74-1.5-3.56-1.47-5.33,.34-.02,.67-.04,1.01-.07-.06,1.75,.48,3.56,1.54,5.29Z"/><path class="cls-1" d="M96.49,255.25c-.37,.04-.74,.07-1.1,.09-.92-1.75-1.39-3.58-1.37-5.36,.34-.01,.67-.03,1-.06-.03,1.77,.47,3.59,1.47,5.33Z"/><path class="cls-1" d="M94.02,249.98c-.02,1.78,.45,3.61,1.37,5.36-2,.14-3.98,.15-5.88,.07-.63-1.8-.95-3.65-.93-5.49,1.75,.12,3.59,.15,5.44,.06Z"/><path class="cls-1" d="M102.3,232.01c.18,.29,.36,.59,.52,.9-1.85,.47-3.57,1.12-5.15,1.93-.16-.29-.34-.57-.52-.84,1.58-.83,3.3-1.49,5.15-1.99Z"/><path class="cls-1" d="M107.23,244.42c.14,.66,.03,1.34-.31,1.91h0c-.39,.67-1.05,1.14-1.8,1.29-.71,.15-1.44,.01-2.04-.39-.04-.02-.07-.05-.11-.07-.55-.4-.92-.98-1.06-1.65-.21-1.02-.47-2-.76-2.96,1.42-.79,3.08-1.38,4.92-1.73,.07-.01,.14-.03,.21-.03,.38,1.17,.7,2.38,.95,3.63Z"/><path class="cls-1" d="M102.82,232.91c.18,.29,.35,.6,.5,.91-1.85,.45-3.57,1.09-5.14,1.89-.17-.3-.34-.59-.51-.87,1.58-.81,3.3-1.46,5.15-1.93Z"/><path class="cls-1" d="M105.62,238.87c.13,.31,.24,.63,.34,.95-.02,0-.05,.01-.07,.01-1.88,.36-3.59,.96-5.06,1.76-.11-.32-.22-.65-.34-.96,1.51-.79,3.23-1.39,5.13-1.76Z"/><path class="cls-1" d="M106.28,240.79c-.07,0-.14,.02-.21,.03-1.84,.35-3.5,.94-4.92,1.73-.1-.32-.21-.64-.32-.96,1.47-.8,3.18-1.4,5.06-1.76,.02,0,.05-.01,.07-.01,.12,.32,.23,.64,.32,.97Z"/><path class="cls-1" d="M103.32,233.82c.85,1.56,1.63,3.25,2.3,5.05-1.9,.37-3.62,.97-5.13,1.76-.67-1.77-1.46-3.42-2.31-4.92,1.57-.8,3.29-1.44,5.14-1.89Z"/><path class="cls-1" d="M97.62,225.49c1.47,1.72,3.14,3.92,4.68,6.52-1.85,.5-3.57,1.16-5.15,1.99-1.22-1.95-2.51-3.63-3.66-4.98-3.29-3.85-7.54-6.46-12.14-7.49-.07-1.96-.27-3.85-.56-5.63,6.41,.98,12.36,4.36,16.83,9.59Z"/><path class="cls-1" d="M130.44,252.39c-1.7,2.27-2.54,4.81-2.33,7.33-1.76,.69-3.54,1.24-5.26,1.68-.06-.33-.11-.67-.14-1.01-.41-4.25,1.05-8.48,3.99-12.05,1.29,1.19,2.56,2.54,3.74,4.05Z"/><path class="cls-1" d="M132.47,265.97c-.34,.15-.68,.3-1.01,.43-1.42-1.38-2.43-2.97-2.96-4.68,.31-.12,.62-.24,.93-.37,.51,1.7,1.56,3.28,3.04,4.62Z"/><path class="cls-1" d="M128.5,261.72c.53,1.71,1.54,3.3,2.96,4.68-1.87,.75-3.75,1.37-5.58,1.88-1.15-1.51-2.02-3.17-2.57-4.93,1.7-.44,3.45-.98,5.19-1.63Z"/><path class="cls-1" d="M125.88,268.28c-.35,.1-.7,.2-1.04,.28-1.11-1.53-1.96-3.2-2.5-4.96,.32-.08,.65-.16,.97-.25,.55,1.76,1.42,3.42,2.57,4.93Z"/><path class="cls-1" d="M124.84,268.56c-.35,.1-.7,.18-1.04,.26-1.08-1.55-1.91-3.23-2.44-5,.32-.07,.65-.14,.98-.22,.54,1.76,1.39,3.43,2.5,4.96Z"/><path class="cls-1" d="M121.36,263.82c.53,1.77,1.36,3.45,2.44,5-2.66,.65-5.16,1.08-7.27,1.37-7.48,1.01-14.95-1.06-20.48-5.68-2.5-2.1-4.42-4.51-5.68-7.07,2.02,.05,4.12,0,6.23-.19,.8,1.09,1.78,2.13,2.93,3.09,4.37,3.65,10.3,5.28,16.27,4.47,1.65-.22,3.54-.54,5.56-.99Z"/><path class="cls-1" d="M137.61,260.23c.74,1.31,.28,2.97-1.02,3.71-1.01,.58-2.06,1.11-3.11,1.59-1.56-1.32-2.64-2.88-3.12-4.56,1.21-.52,2.4-1.1,3.54-1.75,1.3-.74,2.97-.29,3.71,1.01Z"/><path class="cls-1" d="M130.36,260.97c.48,1.68,1.56,3.24,3.12,4.56-.34,.16-.67,.3-1.01,.44-1.48-1.34-2.53-2.92-3.04-4.62,.31-.12,.62-.25,.93-.38Z"/><path class="cls-1" d="M139.7,253.68c0,.2-.03,.4-.07,.59-.16,.75-.64,1.4-1.31,1.78-.63,.36-1.36,.45-2.06,.26-.04-.02-.08-.03-.12-.04-.65-.21-1.19-.65-1.52-1.24-.51-.9-1.06-1.76-1.64-2.58,1.11-1.18,2.51-2.26,4.15-3.17l.18-.09c.73,1,1.4,2.05,2.03,3.16,.23,.41,.36,.87,.36,1.33Z"/><path class="cls-1" d="M131.59,242.77c.26,.22,.51,.45,.76,.71-1.62,1-3.06,2.14-4.31,3.39-.25-.24-.49-.46-.74-.67,1.24-1.26,2.68-2.41,4.29-3.43Z"/><path class="cls-1" d="M130.82,242.07c.26,.22,.52,.45,.77,.7-1.61,1.02-3.05,2.17-4.29,3.43-.26-.23-.51-.44-.76-.66,1.25-1.26,2.68-2.43,4.28-3.47Z"/><path class="cls-1" d="M130.82,242.07c-1.6,1.04-3.03,2.21-4.28,3.47-1.77-1.47-3.51-2.67-5.03-3.59-4.32-2.64-9.18-3.81-13.86-3.37-.66-1.84-1.43-3.57-2.27-5.18,6.4-1.05,13.11,.33,18.97,3.92,1.94,1.18,4.2,2.76,6.47,4.75Z"/><path class="cls-1" d="M132.35,243.48c1.29,1.22,2.55,2.58,3.75,4.09-1.69,.94-3.15,2.05-4.34,3.27-1.18-1.48-2.44-2.8-3.72-3.97,1.25-1.25,2.69-2.39,4.31-3.39Z"/><path class="cls-1" d="M137.31,249.19l-.18,.09c-1.64,.91-3.04,1.99-4.15,3.17-.19-.27-.39-.54-.6-.81,1.15-1.21,2.58-2.31,4.26-3.23,.03-.01,.05-.03,.08-.04,.21,.27,.41,.54,.59,.82Z"/><path class="cls-1" d="M136.72,248.37s-.05,.03-.08,.04c-1.68,.92-3.11,2.02-4.26,3.23-.2-.27-.4-.54-.62-.8,1.19-1.22,2.65-2.33,4.34-3.27,.21,.26,.42,.52,.62,.8Z"/><path class="cls-1" d="M275.29,139.19c3.28,6.8,3.61,14.55,.92,21.24-1.22,3.03-2.92,5.6-4.96,7.59-.57-1.94-1.27-3.92-2.11-5.88,.79-1.09,1.47-2.35,2.03-3.74,2.12-5.28,1.84-11.42-.78-16.85-.72-1.5-1.6-3.2-2.65-4.98,1.52-1.07,2.87-2.37,4.01-3.88,1.43,2.33,2.61,4.57,3.54,6.5Z"/><path class="cls-1" d="M266.66,100.34c5.22,5.46,7.93,12.72,7.44,19.91-.22,3.25-1.05,6.23-2.39,8.76-1.14-1.67-2.41-3.34-3.81-4.94,.41-1.29,.68-2.7,.78-4.19,.38-5.67-1.78-11.43-5.95-15.79-1.15-1.21-2.53-2.55-4.08-3.92,1.13-1.47,2-3.12,2.62-4.91,2.09,1.76,3.9,3.53,5.39,5.08Z"/><path class="cls-1" d="M271.49,178.81c1.02,7.48-1.05,14.95-5.68,20.48-2.1,2.5-4.51,4.42-7.07,5.68,.05-2.02,0-4.12-.19-6.23,1.09-.8,2.13-1.78,3.09-2.93,3.65-4.37,5.28-10.3,4.47-16.27-.22-1.65-.54-3.54-.99-5.56,1.77-.53,3.45-1.36,5-2.44,.65,2.66,1.08,5.16,1.37,7.27Z"/><path class="cls-1" d="M271.18,131.78c.19,.3,.38,.61,.57,.91-1.14,1.51-2.49,2.81-4.01,3.88-.17-.29-.34-.58-.52-.87,1.51-1.06,2.84-2.38,3.96-3.92Z"/><path class="cls-1" d="M270.59,130.88c.2,.3,.39,.6,.59,.9-1.12,1.54-2.45,2.86-3.96,3.92-.17-.28-.35-.56-.53-.85,1.5-1.06,2.81-2.4,3.9-3.97Z"/><path class="cls-1" d="M267.06,126.16c1.3,1.54,2.47,3.14,3.53,4.72-1.09,1.57-2.4,2.91-3.9,3.97-.95-1.48-2-2.98-3.15-4.43,1.46-1.03,2.65-2.48,3.52-4.26Z"/><path class="cls-1" d="M269.86,170.5c.1,.35,.18,.7,.26,1.04-1.55,1.08-3.23,1.91-5,2.44-.07-.32-.14-.65-.22-.98,1.76-.54,3.43-1.38,4.96-2.5Z"/><path class="cls-1" d="M269.58,169.46c.1,.35,.2,.7,.28,1.04-1.53,1.12-3.2,1.96-4.96,2.5-.08-.32-.16-.65-.25-.97,1.76-.55,3.42-1.42,4.93-2.57Z"/><path class="cls-1" d="M267.7,163.89c.75,1.86,1.37,3.74,1.88,5.57-1.51,1.15-3.17,2.02-4.93,2.57-.43-1.7-.97-3.45-1.63-5.19,1.71-.52,3.29-1.53,4.68-2.95Z"/><path class="cls-1" d="M267.28,162.87c.15,.34,.29,.68,.42,1.02-1.39,1.42-2.97,2.43-4.68,2.95-.11-.32-.23-.63-.36-.94,1.7-.5,3.27-1.55,4.62-3.03Z"/><path class="cls-1" d="M266.83,161.87c.16,.33,.31,.67,.45,1-1.35,1.48-2.92,2.53-4.62,3.03-.13-.31-.25-.62-.39-.92,1.68-.48,3.25-1.55,4.56-3.11Z"/><path class="cls-1" d="M266.35,125.33c.25,.27,.49,.55,.71,.83-.87,1.78-2.06,3.23-3.52,4.26-.21-.26-.42-.52-.64-.78,1.45-1,2.63-2.48,3.45-4.31Z"/><path class="cls-1" d="M266.83,161.87c-1.31,1.56-2.88,2.63-4.56,3.11-.52-1.21-1.1-2.4-1.75-3.54-.74-1.3-.28-2.97,1.02-3.71s2.96-.28,3.7,1.02c.58,1.02,1.11,2.06,1.59,3.12Z"/><path class="cls-1" d="M265.62,124.52c.26,.27,.5,.54,.73,.81-.82,1.83-2,3.31-3.45,4.31-.21-.25-.42-.5-.64-.75,1.44-.98,2.59-2.48,3.36-4.37Z"/><path class="cls-1" d="M265.62,124.52c-.77,1.89-1.92,3.39-3.36,4.37-.87-.99-1.79-1.94-2.77-2.83-1.11-1.01-1.19-2.73-.18-3.84,1.01-1.1,2.73-1.18,3.84-.17,.87,.79,1.69,1.61,2.47,2.47Z"/><path class="cls-1" d="M261.76,131.41c1.19,1.46,2.27,2.99,3.23,4.49-.3,.15-.61,.3-.93,.44-3.92,1.71-8.39,1.63-12.69-.07,.73-1.59,1.61-3.21,2.69-4.8,2.68,.91,5.37,.92,7.7-.06Z"/><path class="cls-1" d="M261.02,167.23c.69,1.76,1.24,3.54,1.68,5.26-.33,.06-.67,.11-1.01,.14-4.25,.41-8.48-1.05-12.04-4,1.19-1.28,2.53-2.56,4.04-3.73,2.27,1.7,4.81,2.54,7.33,2.33Z"/><path class="cls-1" d="M260.45,94.57c.28,.23,.55,.46,.82,.69-.62,1.79-1.49,3.44-2.62,4.91-.25-.22-.5-.44-.75-.65,1.11-1.48,1.97-3.14,2.55-4.95Z"/><path class="cls-1" d="M259.61,93.9c.29,.22,.57,.45,.84,.67-.58,1.81-1.44,3.47-2.55,4.95-.25-.22-.51-.43-.77-.65,1.1-1.47,1.93-3.15,2.48-4.97Z"/><path class="cls-1" d="M259.67,82.69c.79,3.17,.93,6.26,.44,9.07-1.6-1.24-3.32-2.44-5.15-3.53-.01-1.34-.19-2.76-.56-4.21-1.38-5.52-5.22-10.32-10.54-13.18-1.47-.79-3.19-1.65-5.09-2.46,.62-1.75,.95-3.6,.98-5.49,2.53,1.03,4.81,2.15,6.69,3.16,6.65,3.58,11.47,9.65,13.23,16.64Z"/><path class="cls-1" d="M254.81,90.49c1.71,1.07,3.31,2.22,4.8,3.41-.55,1.82-1.38,3.5-2.48,4.97-1.35-1.12-2.82-2.22-4.37-3.24,1.08-1.43,1.77-3.18,2.05-5.14Z"/><path class="cls-1" d="M257.35,157.02c.36,.63,.45,1.36,.26,2.06-.01,.04-.02,.08-.04,.12-.21,.65-.64,1.18-1.24,1.52-.9,.51-1.76,1.06-2.58,1.64-1.18-1.11-2.25-2.51-3.16-4.15-.03-.06-.07-.13-.1-.19,1-.72,2.05-1.39,3.16-2.02,.41-.24,.87-.36,1.33-.36,.19,0,.39,.02,.59,.07,.75,.16,1.4,.64,1.78,1.31Z"/><path class="cls-1" d="M256.64,199.95c.14,2,.15,3.98,.07,5.88-1.8,.63-3.65,.95-5.49,.93,.12-1.75,.15-3.58,.06-5.44,1.78,.02,3.61-.45,5.36-1.37Z"/><path class="cls-1" d="M256.71,205.83c-.01,.36-.03,.72-.05,1.07-1.81,.59-3.65,.88-5.5,.84,.03-.32,.05-.65,.06-.98,1.84,.02,3.69-.3,5.49-.93Z"/><path class="cls-1" d="M256.66,206.9c-.02,.37-.05,.73-.07,1.08-1.81,.55-3.66,.81-5.51,.77,.02-.33,.05-.67,.08-1.01,1.85,.04,3.69-.25,5.5-.84Z"/><path class="cls-1" d="M256.55,198.85c.04,.37,.07,.74,.09,1.1-1.75,.92-3.58,1.39-5.36,1.37-.01-.33-.03-.67-.06-1,1.77,.03,3.59-.47,5.33-1.47Z"/><path class="cls-1" d="M256.44,197.77c.05,.36,.08,.72,.11,1.08-1.74,1-3.56,1.5-5.33,1.47-.02-.34-.04-.67-.07-1.01,1.74,.06,3.56-.48,5.29-1.54Z"/><path class="cls-1" d="M256.44,197.76h0c-1.73,1.07-3.55,1.61-5.29,1.55-.13-1.31-.31-2.62-.58-3.91-.3-1.46,.65-2.9,2.11-3.21,1.47-.3,2.91,.65,3.21,2.12,.24,1.14,.42,2.3,.55,3.45Z"/><path class="cls-1" d="M255.99,124.72v.12c0,.68-.25,1.33-.71,1.83-.7,.77-1.35,1.56-1.94,2.36-1.47-.69-2.93-1.68-4.3-2.97-.05-.05-.1-.1-.15-.14,.72-.99,1.52-1.96,2.38-2.91,.45-.5,1.07-.81,1.74-.87,.76-.08,1.53,.18,2.1,.7,.53,.49,.85,1.15,.88,1.88Z"/><path class="cls-1" d="M251.37,97.12c1.59,1.02,3.08,2.14,4.46,3.27-.23,.25-.48,.48-.74,.71-3.2,2.83-7.47,4.14-12.08,3.85,.2-1.74,.54-3.56,1.07-5.4,2.83,.04,5.38-.78,7.29-2.43Z"/><path class="cls-1" d="M256.59,207.98c-.21,2.73-.57,5.23-.95,7.33-1.35,7.44-5.62,13.9-11.73,17.73-2.77,1.73-5.66,2.81-8.48,3.22,.67-1.9,1.28-3.91,1.74-5.98,1.29-.43,2.58-1.04,3.85-1.84,4.82-3.03,8.2-8.16,9.28-14.1,.3-1.64,.58-3.53,.78-5.59,1.85,.04,3.7-.22,5.51-.77Z"/><path class="cls-1" d="M253.88,89.92c.32,.19,.63,.38,.93,.57-.28,1.96-.97,3.71-2.05,5.14l-.84-.54c1.08-1.41,1.74-3.18,1.96-5.17Z"/><path class="cls-1" d="M252.93,89.37c.32,.18,.64,.36,.95,.55-.22,1.99-.88,3.76-1.96,5.17-.28-.18-.57-.35-.85-.52,1.08-1.38,1.71-3.16,1.86-5.2Z"/><path class="cls-1" d="M253.75,162.36c-.28,.2-.55,.39-.81,.6-1.21-1.15-2.31-2.59-3.23-4.27-.01-.02-.03-.05-.04-.07,.27-.21,.54-.41,.82-.6,.03,.06,.07,.13,.1,.19,.91,1.64,1.98,3.04,3.16,4.15Z"/><path class="cls-1" d="M252.94,162.96c-.28,.2-.54,.41-.8,.62-1.22-1.19-2.33-2.65-3.27-4.34,.26-.21,.52-.42,.8-.62,.01,.02,.03,.05,.04,.07,.92,1.68,2.02,3.12,3.23,4.27Z"/><path class="cls-1" d="M253.34,129.03c-.21,.28-.41,.55-.6,.82-1.5-.73-2.99-1.75-4.38-3.06l-.06-.06c.19-.27,.38-.54,.59-.81,.05,.04,.1,.09,.15,.14,1.37,1.29,2.83,2.28,4.3,2.97Z"/><path class="cls-1" d="M252.74,129.85c-.2,.28-.38,.56-.56,.84-1.53-.75-3.04-1.8-4.45-3.12,.18-.28,.37-.56,.57-.84l.06,.06c1.39,1.31,2.88,2.33,4.38,3.06Z"/><path class="cls-1" d="M249.81,87.79c1.07,.48,2.11,1.01,3.12,1.58-.15,2.04-.78,3.82-1.86,5.2-1.13-.67-2.3-1.29-3.5-1.83-1.36-.62-1.97-2.24-1.36-3.6,.62-1.36,2.24-1.97,3.6-1.35Z"/><path class="cls-1" d="M252.18,130.69c-1.04,1.58-1.91,3.19-2.63,4.76-1.57-.8-3.1-1.82-4.56-3.06,.77-1.6,1.67-3.22,2.74-4.82,1.41,1.32,2.92,2.37,4.45,3.12Z"/><path class="cls-1" d="M248.87,159.24c.94,1.69,2.05,3.15,3.27,4.34-1.48,1.18-2.8,2.45-3.97,3.72-1.24-1.25-2.39-2.69-3.39-4.31,1.22-1.29,2.58-2.55,4.09-3.75Z"/><path class="cls-1" d="M249.26,201.06c.11,1.88,.09,3.75-.03,5.53-.34-.05-.67-.11-1-.18-4.17-.92-7.75-3.62-10.23-7.52,1.53-.85,3.2-1.65,5.01-2.3,1.63,2.31,3.79,3.89,6.25,4.47Z"/><path class="cls-1" d="M249.55,135.45c-.14,.31-.28,.61-.41,.91-1.58-.8-3.12-1.81-4.59-3.02,.13-.32,.28-.63,.44-.95,1.46,1.24,2.99,2.26,4.56,3.06Z"/><path class="cls-1" d="M249.14,136.36c-.13,.32-.26,.63-.38,.93-1.59-.79-3.15-1.8-4.63-3.01,.13-.31,.27-.63,.42-.94,1.47,1.21,3.01,2.22,4.59,3.02Z"/><path class="cls-1" d="M248.93,190.22c.14,.71,0,1.44-.4,2.04-.02,.04-.04,.07-.07,.11-.4,.55-.98,.92-1.65,1.06-1.01,.21-2,.46-2.95,.76-.79-1.42-1.38-3.08-1.74-4.92-.01-.07-.03-.14-.03-.21,1.17-.38,2.38-.7,3.63-.95,.19-.04,.38-.06,.56-.06,.48,0,.94,.13,1.36,.37,.66,.39,1.13,1.05,1.29,1.8Z"/><path class="cls-1" d="M248.17,167.3c-.23,.25-.45,.49-.67,.74-1.26-1.24-2.41-2.68-3.43-4.29,.22-.26,.45-.51,.71-.76,1,1.62,2.15,3.06,3.39,4.31Z"/><path class="cls-1" d="M247.5,168.04c-.22,.26-.44,.52-.65,.77-1.27-1.25-2.44-2.69-3.48-4.29,.22-.26,.45-.52,.7-.77,1.02,1.61,2.17,3.05,3.43,4.29Z"/><path class="cls-1" d="M248.76,137.29c-.86,2.14-1.45,4.17-1.87,5.89-1.18,4.92-.79,9.9,1.08,14.23-1.55,1.19-2.96,2.47-4.23,3.77-2.98-5.77-3.73-12.58-2.13-19.27,.53-2.21,1.33-4.85,2.52-7.63,1.48,1.21,3.04,2.22,4.63,3.01Z"/><path class="cls-1" d="M243.87,92.66c.21,.64,.17,1.34-.11,1.96-.43,.95-.8,1.9-1.12,2.84-1.61-.2-3.3-.7-5.01-1.5-.06-.03-.13-.06-.19-.1,.39-1.16,.84-2.33,1.37-3.49,.28-.61,.77-1.1,1.39-1.36,.7-.31,1.51-.31,2.21,.01,.66,.3,1.16,.84,1.42,1.52,.01,.04,.03,.08,.04,.12Z"/><path class="cls-1" d="M246.85,168.81c-1.48,1.77-2.66,3.5-3.59,5.02-2.65,4.32-3.82,9.18-3.38,13.86-1.84,.66-3.57,1.44-5.18,2.28-1.05-6.4,.33-13.11,3.92-18.98,1.18-1.94,2.76-4.2,4.75-6.47,1.04,1.6,2.21,3.04,3.48,4.29Z"/><path class="cls-1" d="M246.3,126.11c-1.1,1.62-2.05,3.26-2.85,4.88-4.62-4.55-7.44-10.8-7.98-17.66-.18-2.26-.24-5.02,.04-8.03,1.78,.69,3.57,1.16,5.33,1.42-.15,2.3-.1,4.41,.04,6.18,.4,5.06,2.31,9.68,5.42,13.21Z"/><path class="cls-1" d="M243.86,194.19c-.33,.1-.65,.2-.97,.32-.79-1.47-1.39-3.18-1.75-5.06,0-.03,0-.05,0-.08,.32-.11,.64-.22,.96-.31,0,.07,.02,.14,.03,.21,.36,1.84,.95,3.5,1.74,4.92Z"/><path class="cls-1" d="M242.89,194.51c-.32,.11-.64,.22-.95,.34-.79-1.51-1.4-3.24-1.76-5.14,.31-.12,.63-.23,.95-.34,0,.03,0,.05,0,.08,.36,1.88,.96,3.59,1.75,5.06Z"/><path class="cls-1" d="M242.64,97.46c-.11,.32-.22,.64-.31,.96-1.66-.22-3.38-.74-5.12-1.55-.03-.01-.05-.03-.08-.04,.1-.32,.2-.65,.31-.97,.06,.04,.13,.07,.19,.1,1.71,.8,3.4,1.3,5.01,1.5Z"/><path class="cls-1" d="M242.33,98.42c-.1,.33-.2,.65-.28,.97-1.69-.24-3.45-.77-5.2-1.58,.08-.32,.18-.65,.28-.98,.03,.01,.05,.03,.08,.04,1.74,.81,3.46,1.33,5.12,1.55Z"/><path class="cls-1" d="M242.05,99.39c-.5,1.82-.83,3.62-1.02,5.34-1.75-.26-3.53-.76-5.3-1.48,.24-1.75,.6-3.58,1.12-5.44,1.75,.81,3.51,1.34,5.2,1.58Z"/><path class="cls-1" d="M241.03,104.73c-.05,.33-.08,.66-.11,.99-1.75-.26-3.53-.75-5.31-1.45,.04-.34,.08-.67,.12-1.02,1.77,.72,3.55,1.22,5.3,1.48Z"/><path class="cls-1" d="M240.92,105.72c-.03,.34-.06,.67-.08,1-1.76-.26-3.55-.73-5.33-1.42,.02-.34,.06-.68,.1-1.03,1.78,.7,3.56,1.19,5.31,1.45Z"/><path class="cls-1" d="M240.18,189.71c.36,1.9,.97,3.63,1.76,5.14-1.77,.67-3.41,1.46-4.92,2.31-.8-1.57-1.44-3.29-1.9-5.14,1.56-.85,3.25-1.64,5.06-2.31Z"/><path class="cls-1" d="M239.75,62.89c-.03,1.89-.36,3.74-.98,5.49-.3-.14-.61-.27-.92-.39,.61-1.74,.91-3.59,.91-5.49,.34,.12,.67,.25,.99,.39Z"/><path class="cls-1" d="M238.76,62.49h0c0,1.91-.3,3.76-.91,5.5-.3-.14-.61-.26-.92-.38,.6-1.74,.87-3.59,.82-5.5,.34,.12,.68,.25,1.01,.38Z"/><path class="cls-1" d="M237.75,62.11c.05,1.91-.22,3.76-.82,5.5-1.64-.65-3.37-1.25-5.16-1.74,.58-1.69,.7-3.57,.37-5.52,1.95,.49,3.83,1.09,5.61,1.76Z"/><path class="cls-1" d="M236.17,69.45c-.15,.3-.32,.6-.49,.9-2.17,3.68-5.83,6.24-10.3,7.39-.35-1.71-.59-3.54-.66-5.45,2.71-.84,4.88-2.41,6.2-4.57,1.82,.48,3.59,1.08,5.25,1.73Z"/><path class="cls-1" d="M237.02,197.16c-.3,.16-.58,.33-.87,.5-.81-1.58-1.46-3.3-1.94-5.14,.3-.18,.6-.35,.91-.5,.46,1.85,1.1,3.57,1.9,5.14Z"/><path class="cls-1" d="M236.15,197.66c-.29,.17-.57,.34-.84,.52-.83-1.58-1.5-3.3-1.99-5.15,.29-.18,.59-.35,.89-.51,.48,1.84,1.13,3.56,1.94,5.14Z"/><path class="cls-1" d="M233.62,222.23c1.49,.17,2.56,1.52,2.4,3-.13,1.16-.31,2.32-.55,3.46-1.98,.48-3.87,.43-5.51-.16,.29-1.28,.51-2.59,.66-3.9,.16-1.48,1.51-2.56,3-2.4Z"/><path class="cls-1" d="M235.47,228.69c-.07,.36-.14,.71-.23,1.07-1.96,.41-3.84,.33-5.51-.25,.08-.32,.15-.65,.23-.98,1.64,.59,3.53,.64,5.51,.16Z"/><path class="cls-1" d="M235.24,229.76c-.07,.36-.16,.72-.25,1.08-1.95,.33-3.83,.21-5.52-.37,.09-.32,.17-.64,.26-.96,1.67,.58,3.55,.66,5.51,.25Z"/><path class="cls-1" d="M234.34,51.43c1.74,2.77,2.82,5.66,3.22,8.48-1.9-.68-3.91-1.28-5.98-1.75-.43-1.28-1.04-2.57-1.84-3.84-3.02-4.82-8.16-8.2-14.09-9.28-1.64-.3-3.54-.58-5.6-.78,.04-1.85-.22-3.7-.77-5.51,2.73,.21,5.24,.57,7.34,.95,7.43,1.35,13.89,5.62,17.72,11.73Z"/><path class="cls-1" d="M235.04,96.86c-.55,1.88-.94,3.73-1.21,5.52-5.8-2.92-10.41-7.98-13.04-14.33-.87-2.1-1.77-4.7-2.44-7.65,1.91,.11,3.75,0,5.51-.29,.57,2.23,1.27,4.22,1.95,5.86,1.94,4.68,5.18,8.48,9.23,10.89Z"/><path class="cls-1" d="M234.99,230.84c-.49,1.95-1.09,3.83-1.76,5.6-1.91,.05-3.76-.22-5.5-.82,.65-1.63,1.25-3.36,1.74-5.15,1.69,.58,3.57,.7,5.52,.37Z"/><path class="cls-1" d="M233.32,193.03c.49,1.85,1.16,3.57,1.99,5.15-1.95,1.23-3.63,2.52-4.98,3.67-3.85,3.29-6.47,7.54-7.5,12.14-1.96,.07-3.84,.27-5.62,.56,.97-6.41,4.36-12.36,9.59-16.83,1.73-1.48,3.91-3.14,6.52-4.69Z"/><path class="cls-1" d="M233.23,236.44c-.12,.35-.25,.69-.39,1.02-1.9,0-3.75-.3-5.49-.91,.14-.31,.26-.62,.38-.93,1.74,.6,3.59,.87,5.5,.82Z"/><path class="cls-1" d="M232.84,237.46c-.13,.34-.26,.67-.39,.99-1.89-.03-3.74-.36-5.49-.98,.14-.3,.27-.61,.39-.92,1.74,.61,3.59,.91,5.49,.91Z"/><path class="cls-1" d="M232.14,60.35c.33,1.95,.21,3.83-.37,5.52-.32-.09-.64-.17-.96-.26,.58-1.67,.67-3.55,.25-5.51,.36,.07,.72,.16,1.08,.25Z"/><path class="cls-1" d="M231.06,60.1c.42,1.96,.33,3.84-.25,5.51-.33-.08-.65-.16-.98-.23,.6-1.64,.65-3.53,.17-5.51,.36,.06,.71,.14,1.06,.23Z"/><path class="cls-1" d="M229.98,217.09c.51,.57,.76,1.34,.67,2.11-.08,.72-.44,1.36-1,1.82-.04,.02-.07,.05-.1,.07-.55,.4-1.22,.58-1.9,.5-1.03-.11-2.05-.17-3.05-.18-.31-1.59-.36-3.36-.12-5.23,.01-.07,.02-.15,.03-.22,1.22,0,2.48,.08,3.75,.23,.67,.08,1.28,.4,1.72,.9Z"/><path class="cls-1" d="M230,59.87c.48,1.98,.43,3.87-.17,5.51-1.28-.29-2.58-.51-3.89-.66-1.49-.16-2.57-1.51-2.4-3,.16-1.49,1.51-2.56,3-2.4,1.17,.13,2.32,.31,3.46,.55Z"/><path class="cls-1" d="M232.45,238.45c-1.04,2.53-2.16,4.8-3.17,6.69-3.57,6.65-9.64,11.47-16.63,13.23-3.17,.79-6.26,.93-9.07,.44,1.24-1.6,2.44-3.32,3.53-5.15,1.34-.01,2.76-.19,4.21-.56,5.52-1.39,10.32-5.23,13.18-10.54,.79-1.47,1.65-3.19,2.46-5.09,1.75,.62,3.6,.95,5.49,.98Z"/><path class="cls-1" d="M227.62,229.62c-.48,1.82-1.08,3.58-1.73,5.24-.3-.15-.6-.32-.9-.49-3.69-2.16-6.25-5.82-7.4-10.3,1.71-.34,3.55-.58,5.46-.65,.84,2.71,2.41,4.88,4.57,6.2Z"/><path class="cls-1" d="M224.6,221.41c-.34-.01-.68-.01-1.01,0-.3-1.64-.35-3.45-.11-5.35,0-.03,.01-.06,.01-.09,.34,0,.68,0,1.02,0-.01,.07-.02,.15-.03,.22-.24,1.87-.19,3.64,.12,5.23Z"/><path class="cls-1" d="M223.63,79.13c.07,.33,.15,.66,.23,.98-1.76,.29-3.6,.4-5.51,.29-.09-.33-.16-.67-.22-1.01,1.9,.12,3.75,.03,5.5-.26Z"/><path class="cls-1" d="M223.49,215.97s-.01,.06-.01,.09c-.24,1.9-.19,3.71,.11,5.35-.34,0-.68,.01-1.01,.03-.29-1.68-.33-3.52-.1-5.44,.33-.02,.67-.03,1.01-.03Z"/><path class="cls-1" d="M223.41,78.15c.07,.33,.14,.66,.22,.98-1.75,.29-3.6,.38-5.5,.26-.08-.34-.14-.68-.2-1.02,1.9,.14,3.74,.07,5.48-.22Z"/><path class="cls-1" d="M222.4,65.79c.39,.55,.57,1.22,.5,1.9-.12,1.03-.18,2.05-.19,3.05-1.59,.31-3.36,.35-5.22,.12-.07-.01-.15-.02-.22-.03,.01-1.22,.08-2.48,.23-3.75,.07-.67,.39-1.28,.89-1.72,.58-.51,1.35-.76,2.11-.67,.72,.08,1.37,.44,1.82,1,.03,.04,.05,.07,.08,.1Z"/><path class="cls-1" d="M222.74,72.77c.09,1.89,.33,3.69,.67,5.38-1.74,.29-3.58,.36-5.48,.22-.32-1.74-.54-3.59-.62-5.51,1.92,.23,3.75,.19,5.43-.09Z"/><path class="cls-1" d="M222.71,71.75c0,.35,0,.69,.03,1.02-1.68,.28-3.51,.32-5.43,.09-.02-.33-.03-.67-.03-1.01,.03,0,.05,.01,.08,.01,1.9,.24,3.7,.19,5.35-.11Z"/><path class="cls-1" d="M222.71,70.74c-.01,.34-.01,.68,0,1.01-1.65,.3-3.45,.35-5.35,.11-.03,0-.05-.01-.08-.01-.01-.33-.01-.67-.01-1.02,.07,.01,.15,.02,.22,.03,1.86,.23,3.63,.19,5.22-.12Z"/><path class="cls-1" d="M222.48,216c-.23,1.92-.19,3.76,.1,5.44-1.89,.09-3.7,.33-5.39,.67-.29-1.74-.36-3.58-.22-5.49,1.74-.32,3.59-.54,5.51-.62Z"/><path class="cls-1" d="M216.97,216.62c-.14,1.91-.07,3.75,.22,5.49-.33,.07-.66,.14-.98,.21-.29-1.75-.38-3.6-.26-5.5,.34-.07,.67-.14,1.02-.2Z"/><path class="cls-1" d="M215.95,216.82c-.12,1.9-.03,3.75,.26,5.5-.33,.07-.66,.15-.98,.24-.29-1.76-.4-3.61-.29-5.52,.33-.08,.67-.15,1.01-.22Z"/><path class="cls-1" d="M215.29,72.51c.07,1.96,.27,3.84,.57,5.62-6.41-.97-12.36-4.36-16.84-9.59-1.48-1.72-3.14-3.92-4.69-6.52,1.85-.49,3.58-1.16,5.16-1.98,1.22,1.95,2.51,3.62,3.66,4.97,3.3,3.85,7.55,6.46,12.14,7.5Z"/><path class="cls-1" d="M214.94,217.04c-.11,1.91,0,3.76,.29,5.52-2.24,.56-4.22,1.27-5.86,1.95-4.69,1.94-8.49,5.18-10.89,9.23-1.88-.55-3.73-.94-5.52-1.21,2.92-5.8,7.98-10.41,14.33-13.04,2.1-.87,4.7-1.78,7.65-2.45Z"/><path class="cls-1" d="M209.28,38.75c.55,1.81,.81,3.66,.77,5.51-.33-.03-.66-.05-1-.08,.04-1.84-.25-3.7-.84-5.5,.36,.02,.72,.05,1.07,.07Z"/><path class="cls-1" d="M208.21,38.68c.59,1.8,.88,3.66,.84,5.5-.33-.03-.66-.05-.99-.06,.02-1.84-.29-3.69-.93-5.49,.37,0,.73,.03,1.08,.05Z"/><path class="cls-1" d="M207.13,38.63c.64,1.8,.95,3.65,.93,5.49-1.76-.12-3.59-.15-5.44-.06,.02-1.78-.45-3.61-1.38-5.36,2.01-.14,3.99-.15,5.89-.07Z"/><path class="cls-1" d="M207.89,46.11c-.05,.34-.11,.67-.18,1-.92,4.17-3.61,7.74-7.51,10.22-.86-1.52-1.66-3.19-2.31-4.99,2.31-1.63,3.9-3.8,4.47-6.26,1.88-.11,3.75-.09,5.53,.03Z"/><path class="cls-1" d="M206.2,244.91c1.36,.62,1.97,2.23,1.35,3.6-.48,1.06-1.01,2.1-1.58,3.11-2.03-.15-3.82-.78-5.2-1.85,.67-1.13,1.29-2.3,1.83-3.5,.62-1.37,2.23-1.98,3.6-1.36Z"/><path class="cls-1" d="M206.28,36.6c-2.03-.05-4.12,0-6.24,.19-.8-1.09-1.78-2.13-2.93-3.09-4.36-3.65-10.29-5.28-16.27-4.47-1.65,.22-3.55,.54-5.56,.99-.53-1.77-1.35-3.45-2.43-5,2.65-.66,5.15-1.09,7.26-1.38,7.49-1.01,14.95,1.06,20.48,5.69,2.51,2.09,4.43,4.51,5.69,7.07Z"/><path class="cls-1" d="M205.97,251.62c-.18,.32-.36,.64-.55,.96-1.99-.22-3.76-.88-5.17-1.96,.18-.28,.35-.57,.52-.85,1.38,1.07,3.17,1.7,5.2,1.85Z"/><path class="cls-1" d="M205.42,252.58l-.57,.93c-1.96-.28-3.71-.97-5.14-2.05l.54-.84c1.41,1.08,3.18,1.74,5.17,1.96Z"/><path class="cls-1" d="M204.33,238.89c.31,.71,.31,1.51-.01,2.22-.3,.66-.84,1.16-1.52,1.41-.04,.02-.08,.03-.12,.05-.64,.21-1.34,.17-1.96-.11-.95-.43-1.9-.81-2.85-1.13,.2-1.61,.7-3.3,1.5-5,.03-.06,.06-.13,.1-.19,1.16,.39,2.33,.84,3.5,1.37,.61,.28,1.09,.77,1.36,1.38Z"/><path class="cls-1" d="M201.24,38.7c.93,1.75,1.4,3.58,1.38,5.36-.33,.01-.67,.03-1,.06,.04-1.77-.47-3.6-1.46-5.34,.36-.03,.72-.06,1.08-.08Z"/><path class="cls-1" d="M204.85,253.51c-1.07,1.7-2.22,3.31-3.41,4.8-1.82-.55-3.5-1.38-4.97-2.48,1.12-1.35,2.22-2.82,3.24-4.37,1.43,1.08,3.18,1.77,5.14,2.05Z"/><path class="cls-1" d="M200.16,38.78c.99,1.74,1.5,3.57,1.46,5.34-.34,.02-.67,.05-1.01,.07,.07-1.74-.47-3.56-1.54-5.29,.37-.05,.73-.09,1.09-.12Z"/><path class="cls-1" d="M201.44,258.31c-.22,.28-.44,.56-.67,.83-1.8-.58-3.47-1.43-4.94-2.55,.21-.25,.43-.5,.64-.76,1.47,1.1,3.15,1.93,4.97,2.48Z"/><path class="cls-1" d="M200.77,259.14c-.23,.29-.46,.57-.7,.84-1.78-.63-3.43-1.5-4.9-2.63,.22-.25,.44-.5,.66-.76,1.47,1.12,3.14,1.97,4.94,2.55Z"/><path class="cls-1" d="M199.07,38.9c1.07,1.73,1.61,3.55,1.54,5.29-1.3,.13-2.61,.31-3.9,.58-1.47,.3-2.91-.65-3.21-2.12-.3-1.46,.64-2.9,2.11-3.21,1.15-.23,2.3-.41,3.46-.54Z"/><path class="cls-1" d="M198.96,59.19c.17,.29,.35,.57,.53,.85-1.58,.82-3.31,1.49-5.16,1.98-.18-.29-.35-.58-.51-.89,1.84-.48,3.56-1.13,5.14-1.94Z"/><path class="cls-1" d="M199.47,236.14c-.04,.06-.07,.13-.1,.19-.8,1.7-1.3,3.39-1.5,5-.32-.11-.63-.21-.95-.3,.22-1.66,.74-3.38,1.55-5.12,.01-.03,.03-.05,.04-.08,.32,.1,.64,.2,.96,.31Z"/><path class="cls-1" d="M198.46,58.32c.16,.3,.33,.58,.5,.87-1.58,.81-3.3,1.46-5.14,1.94-.18-.29-.35-.6-.5-.91,1.85-.46,3.57-1.1,5.14-1.9Z"/><path class="cls-1" d="M198.51,235.83s-.03,.05-.04,.08c-.81,1.74-1.33,3.46-1.55,5.12-.32-.11-.65-.2-.97-.29,.24-1.69,.77-3.44,1.58-5.19,.32,.08,.65,.18,.98,.28Z"/><path class="cls-1" d="M196.15,53.4c.67,1.77,1.46,3.41,2.31,4.92-1.57,.8-3.29,1.44-5.14,1.9-.85-1.56-1.64-3.25-2.3-5.06,1.89-.36,3.62-.96,5.13-1.76Z"/><path class="cls-1" d="M198.22,250.07c-1.02,1.59-2.14,3.08-3.27,4.46-.25-.23-.48-.48-.71-.74-2.83-3.2-4.14-7.47-3.85-12.09,1.74,.2,3.56,.54,5.4,1.08-.04,2.83,.77,5.38,2.43,7.29Z"/><path class="cls-1" d="M195.81,52.45c.11,.32,.22,.64,.34,.95-1.51,.8-3.24,1.4-5.13,1.76-.13-.31-.24-.63-.35-.95,.03,0,.06,0,.09-.01,1.88-.36,3.58-.96,5.05-1.75Z"/><path class="cls-1" d="M197.53,235.55c-.81,1.75-1.34,3.5-1.58,5.19-1.83-.5-3.62-.83-5.34-1.03,.27-1.74,.76-3.51,1.48-5.28,1.76,.24,3.58,.6,5.44,1.12Z"/><path class="cls-1" d="M195.49,51.48c.1,.33,.2,.65,.32,.97-1.47,.79-3.17,1.39-5.05,1.75-.03,.01-.06,.01-.09,.01-.11-.32-.22-.64-.31-.96,.07,0,.14-.02,.21-.03,1.84-.36,3.5-.95,4.92-1.74Z"/><path class="cls-1" d="M200.07,259.98c-1.76,2.08-3.52,3.89-5.07,5.37-5.46,5.22-12.72,7.93-19.91,7.44-3.25-.22-6.23-1.04-8.76-2.38,1.67-1.14,3.34-2.41,4.94-3.81,1.29,.41,2.7,.67,4.19,.77,5.67,.39,11.43-1.78,15.79-5.94,1.21-1.15,2.55-2.53,3.92-4.08,1.47,1.13,3.12,2,4.9,2.63Z"/><path class="cls-1" d="M194.73,48.53c.21,1.01,.46,2,.76,2.95-1.42,.79-3.08,1.38-4.92,1.74-.07,.01-.14,.03-.21,.03-.38-1.17-.7-2.38-.95-3.63-.04-.18-.06-.36-.06-.55,0-.48,.13-.95,.38-1.37,.39-.66,1.04-1.13,1.8-1.29,.71-.14,1.43,0,2.04,.4,.03,.02,.07,.04,.1,.07,.55,.4,.93,.98,1.06,1.65Z"/><path class="cls-1" d="M191.08,234.31c.33,.03,.67,.07,1.01,.12-.72,1.77-1.21,3.54-1.48,5.28-.34-.04-.67-.07-.99-.1,.26-1.75,.75-3.52,1.46-5.3Z"/><path class="cls-1" d="M190.04,234.2c.34,.03,.69,.06,1.04,.11-.71,1.78-1.2,3.55-1.46,5.3-.34-.03-.67-.06-1-.07,.26-1.76,.73-3.55,1.42-5.34Z"/><path class="cls-1" d="M189,55.46c.66,1.84,1.43,3.57,2.27,5.18-6.4,1.05-13.11-.33-18.98-3.92-1.93-1.18-4.2-2.76-6.48-4.76,1.61-1.03,3.05-2.2,4.3-3.47,1.77,1.47,3.5,2.66,5.02,3.59,4.32,2.65,9.18,3.82,13.87,3.38Z"/><path class="cls-1" d="M190.04,234.2c-.69,1.79-1.16,3.58-1.42,5.34-2.3-.16-4.41-.1-6.19,.04-5.05,.4-9.66,2.31-13.19,5.42-1.62-1.1-3.27-2.05-4.89-2.86,4.56-4.61,10.8-7.44,17.66-7.98,2.26-.18,5.01-.23,8.03,.04Z"/><path class="cls-1" d="M175.28,30.22c-.32,.07-.65,.15-.98,.22-.53-1.76-1.38-3.43-2.49-4.96,.35-.1,.7-.18,1.04-.26,1.08,1.55,1.9,3.23,2.43,5Z"/><path class="cls-1" d="M173.93,33.64c.42,4.26-1.04,8.49-3.99,12.05-1.29-1.19-2.56-2.53-3.73-4.04,1.69-2.27,2.53-4.82,2.32-7.34,1.76-.68,3.53-1.23,5.26-1.67,.06,.33,.11,.66,.14,1Z"/><path class="cls-1" d="M173.12,258c1.1,1.01,1.18,2.74,.17,3.84-.79,.86-1.61,1.69-2.47,2.47-1.89-.77-3.39-1.92-4.37-3.36,.99-.87,1.94-1.79,2.83-2.77,1.01-1.1,2.73-1.19,3.84-.18Z"/><path class="cls-1" d="M174.3,30.44c-.32,.08-.65,.17-.97,.25-.54-1.75-1.41-3.41-2.57-4.93,.35-.1,.7-.19,1.05-.28,1.11,1.53,1.96,3.2,2.49,4.96Z"/><path class="cls-1" d="M173.33,30.69c-1.7,.44-3.46,.97-5.19,1.63-.52-1.7-1.53-3.29-2.95-4.68,1.86-.75,3.74-1.37,5.57-1.88,1.16,1.52,2.03,3.18,2.57,4.93Z"/><path class="cls-1" d="M173.2,251.71c.08,.76-.18,1.53-.7,2.09-.49,.54-1.16,.85-1.88,.88-.04,.01-.08,.01-.13,.01-.67,0-1.32-.25-1.82-.71-.77-.7-1.56-1.35-2.36-1.94,.69-1.47,1.68-2.93,2.97-4.3,.05-.05,.1-.1,.14-.15,.99,.72,1.96,1.52,2.91,2.38,.5,.45,.81,1.07,.87,1.73h0Z"/><path class="cls-1" d="M170.82,264.31c-.27,.25-.54,.5-.82,.73-1.83-.82-3.31-1.99-4.3-3.45,.25-.21,.5-.42,.75-.64,.98,1.44,2.48,2.59,4.37,3.36Z"/><path class="cls-1" d="M169.35,47.84c.26,.23,.51,.44,.76,.65-1.25,1.27-2.69,2.44-4.3,3.47-.25-.22-.51-.45-.76-.68,1.61-1.03,3.05-2.18,4.3-3.44Z"/><path class="cls-1" d="M170,265.04c-.27,.26-.55,.49-.83,.72-1.78-.87-3.23-2.07-4.26-3.53,.27-.21,.53-.42,.79-.64,.99,1.46,2.47,2.63,4.3,3.45Z"/><path class="cls-1" d="M169.42,247.59s-.09,.1-.14,.15c-1.29,1.37-2.28,2.83-2.97,4.3-.28-.21-.55-.41-.82-.6,.72-1.5,1.75-2.99,3.06-4.39l.06-.06c.27,.2,.54,.39,.81,.6Z"/><path class="cls-1" d="M168.6,47.17c.25,.23,.5,.46,.75,.67-1.25,1.26-2.69,2.41-4.3,3.44-.25-.22-.5-.46-.75-.71,1.61-1.01,3.05-2.16,4.3-3.4Z"/><path class="cls-1" d="M164.91,262.23c1.03,1.46,2.48,2.66,4.26,3.53-1.54,1.3-3.14,2.47-4.72,3.52-1.56-1.08-2.9-2.39-3.96-3.89,1.47-.95,2.97-2,4.42-3.16Z"/><path class="cls-1" d="M168.61,246.99l-.06,.06c-1.31,1.4-2.34,2.89-3.06,4.39-.28-.2-.56-.39-.84-.56,.75-1.53,1.8-3.04,3.12-4.45,.28,.18,.56,.37,.84,.56Z"/><path class="cls-1" d="M164.88,43.2c1.19,1.48,2.45,2.8,3.72,3.97-1.25,1.24-2.69,2.39-4.3,3.4-1.29-1.22-2.56-2.59-3.76-4.1,1.69-.93,3.15-2.04,4.34-3.27Z"/><path class="cls-1" d="M168.14,32.32c-.32,.12-.63,.24-.94,.36-.5-1.7-1.54-3.27-3.03-4.62,.34-.14,.68-.29,1.02-.42,1.42,1.39,2.43,2.98,2.95,4.68Z"/><path class="cls-1" d="M167.2,32.68c-.31,.13-.61,.25-.92,.39-.48-1.68-1.55-3.25-3.11-4.56,.33-.16,.66-.31,1-.45,1.49,1.35,2.53,2.92,3.03,4.62Z"/><path class="cls-1" d="M164.27,42.4c.2,.28,.4,.54,.61,.8-1.19,1.23-2.65,2.34-4.34,3.27-.21-.26-.42-.52-.62-.8,.03-.01,.05-.03,.08-.04,1.68-.92,3.12-2.02,4.27-3.23Z"/><path class="cls-1" d="M163.17,28.51c1.56,1.31,2.63,2.88,3.11,4.56-1.2,.52-2.39,1.1-3.54,1.75-1.3,.74-2.96,.28-3.7-1.02s-.29-2.96,1.01-3.7c1.02-.58,2.06-1.11,3.12-1.59Z"/><path class="cls-1" d="M167.77,246.43c-1.32,1.41-2.37,2.92-3.12,4.45-1.58-1.05-3.19-1.91-4.76-2.63,.8-1.57,1.82-3.11,3.05-4.57,1.6,.77,3.22,1.68,4.83,2.75Z"/><path class="cls-1" d="M169.32,24.1c-1.94,.57-3.92,1.26-5.88,2.1-1.09-.79-2.35-1.47-3.74-2.03-5.27-2.13-11.42-1.84-16.85,.77-1.5,.72-3.2,1.61-4.98,2.67-1.06-1.52-2.36-2.87-3.87-4.01,2.33-1.44,4.56-2.62,6.49-3.55,6.81-3.28,14.55-3.61,21.24-.93,3.03,1.22,5.6,2.93,7.59,4.98Z"/><path class="cls-1" d="M164.45,269.28c-.3,.2-.59,.4-.89,.59-1.54-1.11-2.87-2.44-3.93-3.95,.28-.18,.57-.36,.86-.53,1.06,1.5,2.4,2.81,3.96,3.89Z"/><path class="cls-1" d="M163.67,41.59c.19,.28,.39,.55,.6,.81-1.15,1.21-2.59,2.31-4.27,3.23-.03,0-.05,.03-.08,.04-.21-.27-.41-.54-.6-.82,.07-.03,.13-.06,.2-.1,1.64-.91,3.04-1.98,4.15-3.16Z"/><path class="cls-1" d="M163.56,269.87c-.31,.19-.62,.39-.92,.57-1.51-1.14-2.81-2.49-3.87-4.01,.28-.16,.57-.34,.86-.51,1.06,1.51,2.39,2.84,3.93,3.95Z"/><path class="cls-1" d="M163.87,252.76c-.91,2.68-.92,5.37,.06,7.7-1.46,1.19-2.99,2.27-4.49,3.23-.15-.3-.3-.61-.44-.93-1.71-3.92-1.63-8.39,.07-12.69,1.59,.73,3.21,1.61,4.8,2.69Z"/><path class="cls-1" d="M162,243.24c.31,.14,.63,.29,.94,.44-1.23,1.46-2.25,3-3.05,4.57-.31-.14-.61-.28-.91-.41,.8-1.58,1.81-3.13,3.02-4.6Z"/><path class="cls-1" d="M162.03,39.01c.51,.9,1.06,1.76,1.64,2.58-1.11,1.18-2.51,2.25-4.15,3.16-.07,.04-.13,.07-.2,.1-.72-1-1.39-2.05-2.02-3.16-.23-.42-.35-.88-.35-1.34,0-.2,.02-.39,.06-.58,.17-.76,.64-1.4,1.31-1.78,.63-.36,1.37-.45,2.07-.26,.04,.01,.08,.02,.12,.04,.64,.21,1.18,.64,1.52,1.24Z"/><path class="cls-1" d="M161.06,242.82c.31,.13,.63,.27,.94,.42-1.21,1.47-2.22,3.02-3.02,4.6-.32-.13-.63-.26-.93-.38,.8-1.6,1.8-3.16,3.01-4.64Z"/><path class="cls-1" d="M158.71,47.38c1.2,1.55,2.48,2.95,3.77,4.22-5.77,2.97-12.57,3.73-19.27,2.13-2.21-.53-4.85-1.33-7.63-2.52,1.21-1.48,2.22-3.04,3.01-4.63,2.14,.86,4.17,1.45,5.89,1.87,4.93,1.18,9.9,.79,14.23-1.07Z"/><path class="cls-1" d="M158.77,266.43c1.06,1.52,2.36,2.87,3.87,4.01-2.33,1.44-4.56,2.62-6.49,3.55-6.81,3.27-14.55,3.61-21.24,.92-3.03-1.22-5.6-2.92-7.59-4.97,1.94-.57,3.92-1.26,5.88-2.1,1.09,.79,2.35,1.47,3.74,2.03,5.28,2.12,11.42,1.84,16.85-.78,1.5-.72,3.2-1.61,4.98-2.66Z"/><path class="cls-1" d="M161.06,242.82c-1.21,1.48-2.21,3.04-3.01,4.64-2.14-.86-4.17-1.45-5.89-1.87-4.92-1.18-9.9-.8-14.23,1.07-1.2-1.55-2.48-2.96-3.77-4.22,5.76-2.98,12.58-3.74,19.27-2.13,2.21,.52,4.85,1.32,7.63,2.51Z"/><path class="cls-1" d="M137.66,46.2c.32,.13,.63,.26,.93,.38-.79,1.59-1.8,3.15-3.01,4.63-.31-.13-.63-.27-.94-.42,1.21-1.47,2.22-3.01,3.02-4.59Z"/><path class="cls-1" d="M136.75,45.79c.31,.14,.61,.28,.91,.41-.8,1.58-1.81,3.12-3.02,4.59-.31-.13-.63-.28-.94-.44,1.24-1.46,2.26-2.99,3.05-4.56Z"/><path class="cls-1" d="M137.87,27.61c-.29,.16-.58,.33-.87,.51-1.05-1.51-2.37-2.84-3.91-3.95,.3-.2,.61-.39,.91-.57,1.51,1.14,2.81,2.49,3.87,4.01Z"/><path class="cls-1" d="M131.99,43.16c1.58,1.04,3.19,1.91,4.76,2.63-.79,1.57-1.81,3.1-3.05,4.56-1.6-.76-3.22-1.67-4.82-2.73,1.31-1.42,2.36-2.93,3.11-4.46Z"/><path class="cls-1" d="M137,28.12c-.28,.18-.56,.35-.85,.53-1.06-1.5-2.39-2.81-3.96-3.89,.3-.21,.6-.4,.9-.59,1.54,1.11,2.86,2.44,3.91,3.95Z"/><path class="cls-1" d="M136.15,28.65c-1.48,.95-2.98,2-4.43,3.16-1.02-1.46-2.47-2.66-4.25-3.54,1.54-1.29,3.14-2.46,4.72-3.51,1.57,1.08,2.9,2.39,3.96,3.89Z"/><path class="cls-1" d="M131.15,42.59c.28,.2,.56,.39,.84,.57-.75,1.53-1.8,3.04-3.11,4.46-.28-.18-.57-.38-.85-.57l.07-.07c1.3-1.4,2.33-2.88,3.05-4.39Z"/><path class="cls-1" d="M130.34,42c.27,.21,.54,.41,.81,.59-.72,1.51-1.75,2.99-3.05,4.39l-.07,.07c-.27-.2-.54-.39-.81-.6l.15-.15c1.29-1.37,2.28-2.83,2.97-4.3Z"/><path class="cls-1" d="M131.72,31.81c-.26,.2-.52,.41-.77,.63-1.01-1.46-2.49-2.63-4.32-3.46,.28-.24,.56-.48,.84-.71,1.78,.88,3.23,2.08,4.25,3.54Z"/><path class="cls-1" d="M130.95,32.44c-.26,.21-.51,.43-.76,.65-.98-1.45-2.48-2.6-4.37-3.37,.27-.25,.54-.5,.81-.74,1.83,.83,3.31,2,4.32,3.46Z"/><path class="cls-1" d="M127.98,40.06c.77,.7,1.56,1.35,2.36,1.94-.69,1.47-1.68,2.93-2.97,4.3l-.15,.15c-.99-.72-1.96-1.52-2.91-2.38-.49-.45-.8-1.07-.87-1.74-.07-.77,.18-1.53,.7-2.1,.49-.53,1.16-.85,1.88-.88h.13c.68,0,1.32,.25,1.83,.71Z"/><path class="cls-1" d="M130.19,33.09c-.99,.87-1.94,1.79-2.82,2.76-1.01,1.11-2.74,1.19-3.84,.18-1.11-1.01-1.19-2.73-.18-3.84,.79-.87,1.61-1.69,2.47-2.47,1.89,.77,3.39,1.92,4.37,3.37Z"/></svg>