<svg width="134" height="50" viewBox="0 0 134 50" fill="none" xmlns="http://www.w3.org/2000/svg">
<path d="M20.4032 49.1896L11.9097 39.9185L15.0717 36.9956L23.5627 46.2667L20.4032 49.1896Z" fill="#BBE3E4"/>
<path d="M8.49358 36.1893L0 26.9182L3.16208 23.9951L11.6557 33.2664L8.49358 36.1893Z" fill="#BBE3E4"/>
<path d="M33.4455 39.1942L27.5024 28.0995L31.2839 26.0531L37.2297 37.1476L33.4455 39.1942Z" fill="#BBE3E4"/>
<path d="M25.1127 23.637L19.1669 12.5425L22.9484 10.4958L28.8942 21.5906L25.1127 23.637Z" fill="#BBE3E4"/>
<path d="M48.5484 32.7531L45.5211 20.5253L49.6914 19.4841L52.7161 31.7123L48.5484 32.7531Z" fill="#BBE3E4"/>
<path d="M44.3055 15.6071L41.2782 3.37971L45.4459 2.33752L48.4733 14.5649L44.3055 15.6071Z" fill="#BBE3E4"/>
<path d="M69.0605 30.2961L64.7658 30.2685L64.8461 17.668L69.1409 17.6956L69.0605 30.2961Z" fill="#BBE3E4"/>
<path d="M69.172 12.6271L64.8772 12.5997L64.9576 0L69.2523 0.0273466L69.172 12.6271Z" fill="#BBE3E4"/>
<path d="M85.2468 32.9883L81.0894 31.8932L84.2722 19.7057L88.427 20.8005L85.2468 32.9883Z" fill="#BBE3E4"/>
<path d="M89.7048 15.8974L85.55 14.8026L88.7329 2.61456L92.8876 3.70936L89.7048 15.8974Z" fill="#BBE3E4"/>
<path d="M100.264 39.6219L96.5059 37.5281L102.592 26.5104L106.347 28.6044L100.264 39.6219Z" fill="#BBE3E4"/>
<path d="M108.794 24.1721L105.038 22.0784L111.124 11.0607L114.88 13.1544L108.794 24.1721Z" fill="#BBE3E4"/>
<path d="M113.179 49.7836L110.056 46.8206L118.664 37.6589L121.787 40.6219L113.179 49.7836Z" fill="#BBE3E4"/>
<path d="M125.252 36.9365L122.129 33.9734L130.737 24.8117L133.86 27.775L125.252 36.9365Z" fill="#BBE3E4"/>
</svg>
