<svg width="1920" height="651" preserveAspectRatio="none" viewBox="0 0 1920 651" version="1.1" xmlns="http://www.w3.org/2000/svg" xmlns:xlink="http://www.w3.org/1999/xlink" xml:space="preserve" xmlns:serif="http://www.serif.com/" style="fill-rule:evenodd;clip-rule:evenodd;stroke-linejoin:round;stroke-miterlimit:2;">
    <g>
        <path d="M0,435.14C-1.43,435.14 -2.82,434.37 -3.54,433.01C-4.57,431.06 -3.83,428.64 -1.88,427.6C-1.48,427.39 8.05,422.36 25.94,415.28C27.99,414.47 30.32,415.47 31.13,417.53C31.94,419.58 30.94,421.91 28.88,422.72C11.45,429.62 1.95,434.62 1.86,434.67C1.26,434.99 0.62,435.14 -0.01,435.14L0,435.14Z" style="fill:rgb(148,211,214);fill-rule:nonzero;"/>
        <path d="M798.63,487.17L798.53,487.17C779.49,486.72 759.47,484.97 739.02,481.97C736.83,481.65 735.32,479.62 735.64,477.43C735.96,475.24 737.98,473.73 740.18,474.05C760.31,477 780,478.72 798.72,479.16C800.93,479.21 802.68,481.05 802.62,483.25C802.57,485.43 800.79,487.16 798.62,487.16L798.63,487.17ZM838.04,486.22C835.96,486.22 834.21,484.62 834.05,482.52C833.89,480.32 835.54,478.4 837.74,478.24C857.41,476.78 876.82,473.75 895.46,469.23C897.62,468.71 899.77,470.03 900.29,472.17C900.81,474.32 899.49,476.48 897.35,477C878.29,481.62 858.43,484.72 838.33,486.21C838.23,486.21 838.13,486.22 838.03,486.22L838.04,486.22ZM700.72,474.97C700.44,474.97 700.16,474.94 699.88,474.88C681.38,470.92 661.97,465.92 642.17,460.02C640.05,459.39 638.85,457.16 639.48,455.04C640.11,452.92 642.34,451.72 644.46,452.35C664.05,458.19 683.26,463.13 701.56,467.05C703.72,467.51 705.1,469.64 704.63,471.8C704.23,473.68 702.57,474.96 700.72,474.96L700.72,474.97ZM934.13,465.7C932.5,465.7 930.96,464.69 930.37,463.07C929.62,460.99 930.69,458.7 932.76,457.94C950.48,451.5 967.95,443.63 986.16,433.87C988.11,432.82 990.53,433.56 991.57,435.51C992.61,437.46 991.88,439.88 989.93,440.92C971.38,450.86 953.57,458.88 935.49,465.46C935.04,465.62 934.58,465.7 934.12,465.7L934.13,465.7ZM605.7,448.08C605.27,448.08 604.83,448.01 604.4,447.86C592.8,443.87 580.8,439.49 568.73,434.86C562.09,432.31 555.35,429.82 548.69,427.45C546.61,426.71 545.52,424.42 546.27,422.34C547.01,420.26 549.3,419.18 551.38,419.92C558.09,422.31 564.89,424.83 571.59,427.4C583.58,432 595.5,436.34 607.01,440.3C609.1,441.02 610.21,443.3 609.49,445.38C608.92,447.04 607.37,448.08 605.71,448.08L605.7,448.08ZM1022.14,421.49C1020.81,421.49 1019.51,420.83 1018.75,419.62C1017.57,417.75 1018.14,415.28 1020.01,414.1C1034.44,405.03 1049.96,394.51 1068.86,381C1070.66,379.72 1073.15,380.13 1074.44,381.93C1075.73,383.73 1075.31,386.23 1073.51,387.51C1054.48,401.11 1038.83,411.71 1024.26,420.87C1023.6,421.29 1022.86,421.48 1022.14,421.48L1022.14,421.49ZM512.52,415.23C512.13,415.23 511.74,415.17 511.34,415.05C492.48,409.25 473.31,404.08 454.38,399.67C452.23,399.17 450.89,397.02 451.39,394.87C451.89,392.72 454.04,391.38 456.19,391.88C475.3,396.33 494.65,401.56 513.69,407.41C515.8,408.06 516.99,410.3 516.34,412.41C515.81,414.13 514.23,415.24 512.52,415.24L512.52,415.23ZM64.7,409.86C63,409.86 61.42,408.77 60.88,407.06C60.22,404.95 61.39,402.71 63.5,402.05C82,396.25 101.41,391.15 121.19,386.89C123.34,386.43 125.48,387.8 125.94,389.96C126.4,392.12 125.03,394.25 122.87,394.71C103.33,398.92 84.16,403.96 65.89,409.68C65.49,409.8 65.09,409.86 64.69,409.86L64.7,409.86ZM416.6,391.73C416.36,391.73 416.12,391.71 415.88,391.66C396.51,388.11 376.87,385.26 357.51,383.18C355.31,382.94 353.72,380.97 353.96,378.78C354.2,376.58 356.18,375 358.36,375.23C377.91,377.33 397.75,380.21 417.32,383.79C419.49,384.19 420.93,386.27 420.53,388.44C420.18,390.37 418.49,391.72 416.6,391.72L416.6,391.73ZM160.89,387.58C158.95,387.58 157.25,386.17 156.94,384.2C156.6,382.02 158.09,379.97 160.27,379.63C179.71,376.58 199.63,374.29 219.49,372.81C221.69,372.65 223.61,374.3 223.78,376.5C223.94,378.7 222.29,380.62 220.09,380.79C200.45,382.25 180.74,384.52 161.52,387.53C161.31,387.56 161.1,387.58 160.9,387.58L160.89,387.58ZM318.54,379.98L318.31,379.98C303.99,379.17 289.51,378.76 275.27,378.76C269.99,378.76 264.63,378.82 259.35,378.93L259.26,378.93C257.09,378.93 255.31,377.19 255.26,375.01C255.21,372.8 256.97,370.97 259.18,370.93C264.51,370.82 269.93,370.76 275.27,370.76C289.66,370.76 304.3,371.17 318.76,371.99C320.97,372.11 322.65,374 322.53,376.21C322.41,378.34 320.65,379.98 318.54,379.98ZM1103.17,365.07C1101.94,365.07 1100.72,364.5 1099.94,363.43C1098.64,361.65 1099.03,359.14 1100.81,357.84C1116.31,346.52 1132.33,334.81 1148.99,323.18C1150.8,321.92 1153.3,322.36 1154.56,324.17C1155.82,325.98 1155.38,328.48 1153.57,329.74C1136.98,341.32 1120.99,353 1105.53,364.3C1104.82,364.82 1103.99,365.07 1103.17,365.07ZM1184.05,308.39C1182.74,308.39 1181.45,307.74 1180.69,306.56C1179.49,304.71 1180.02,302.23 1181.88,301.03C1199.57,289.59 1216.3,279.62 1233.01,270.54C1234.95,269.48 1237.38,270.2 1238.43,272.15C1239.48,274.09 1238.77,276.52 1236.82,277.57C1220.28,286.55 1203.73,296.42 1186.21,307.75C1185.54,308.18 1184.79,308.39 1184.04,308.39L1184.05,308.39ZM1270.15,260.27C1268.64,260.27 1267.2,259.42 1266.52,257.96C1265.59,255.96 1266.45,253.58 1268.45,252.64C1286.51,244.22 1305.07,236.64 1323.62,230.13C1325.71,229.4 1327.99,230.49 1328.72,232.58C1329.45,234.66 1328.35,236.95 1326.27,237.68C1307.97,244.1 1289.65,251.58 1271.83,259.89C1271.28,260.15 1270.71,260.27 1270.14,260.27L1270.15,260.27ZM1362.58,226.08C1360.83,226.08 1359.22,224.92 1358.73,223.15C1358.14,221.02 1359.38,218.82 1361.51,218.22C1380.28,212.99 1399.82,208.54 1419.57,204.99C1421.74,204.6 1423.82,206.04 1424.21,208.22C1424.6,210.39 1423.15,212.47 1420.98,212.86C1401.48,216.36 1382.19,220.76 1363.66,225.92C1363.3,226.02 1362.94,226.07 1362.58,226.07L1362.58,226.08ZM1459.28,207.09C1457.28,207.09 1455.56,205.6 1455.31,203.57C1455.04,201.38 1456.61,199.38 1458.8,199.12C1477.94,196.81 1497.88,195.19 1518.08,194.31C1520.32,194.22 1522.16,195.93 1522.25,198.13C1522.35,200.34 1520.63,202.2 1518.43,202.3C1498.43,203.17 1478.7,204.77 1459.76,207.06C1459.6,207.08 1459.43,207.09 1459.27,207.09L1459.28,207.09ZM1599.69,202.21C1595.3,202.21 1590.82,202.14 1586.37,202C1576.75,201.69 1567.12,201.53 1557.75,201.51C1555.54,201.51 1553.75,199.71 1553.76,197.5C1553.76,195.29 1555.55,193.51 1557.76,193.51C1567.2,193.53 1576.91,193.7 1586.62,194.01C1596.78,194.34 1606.93,194.28 1616.85,193.85C1619.08,193.76 1620.92,195.47 1621.02,197.67C1621.12,199.88 1619.4,201.74 1617.2,201.84C1611.42,202.09 1605.52,202.22 1599.68,202.22L1599.69,202.21ZM1656.35,198.1C1654.4,198.1 1652.69,196.67 1652.4,194.69C1652.08,192.5 1653.59,190.47 1655.77,190.15C1675.17,187.27 1694.36,182.81 1712.8,176.89C1714.91,176.21 1717.16,177.37 1717.83,179.47C1718.5,181.57 1717.35,183.83 1715.25,184.5C1696.39,190.56 1676.78,195.12 1656.94,198.06C1656.74,198.09 1656.54,198.1 1656.35,198.1ZM1750.91,170.54C1749.38,170.54 1747.92,169.66 1747.26,168.18C1746.36,166.16 1747.26,163.8 1749.27,162.89C1766.92,154.98 1784.19,145.48 1800.61,134.66C1802.46,133.44 1804.94,133.95 1806.15,135.8C1807.37,137.64 1806.86,140.13 1805.01,141.34C1788.23,152.4 1770.58,162.1 1752.54,170.19C1752.01,170.43 1751.45,170.54 1750.91,170.54ZM1834.65,118.58C1833.49,118.58 1832.34,118.08 1831.55,117.11C1830.15,115.4 1830.4,112.88 1832.12,111.48C1847.16,99.19 1861.48,85.59 1874.67,71.08C1876.16,69.44 1878.69,69.33 1880.32,70.81C1881.95,72.3 1882.07,74.83 1880.59,76.46C1867.13,91.26 1852.52,105.13 1837.18,117.67C1836.44,118.28 1835.54,118.57 1834.65,118.57L1834.65,118.58Z" style="fill:rgb(148,211,214);fill-rule:nonzero;"/>
        <path d="M1903.49,46.21C1902.67,46.21 1901.84,45.96 1901.13,45.44C1899.35,44.13 1898.96,41.63 1900.27,39.85C1911.06,25.14 1916.44,15.36 1916.49,15.27C1917.55,13.33 1919.98,12.62 1921.92,13.68C1923.86,14.74 1924.57,17.17 1923.51,19.11C1923.28,19.52 1917.85,29.4 1906.72,44.58C1905.94,45.65 1904.72,46.22 1903.49,46.22L1903.49,46.21Z" style="fill:rgb(37,95,92);fill-rule:nonzero;"/>
    </g>
    <path d="M808.7,527.29C798.67,527.29 788.3,526.92 777.9,526.2C775.7,526.05 774.03,524.14 774.19,521.93C774.34,519.73 776.27,518.06 778.46,518.22C788.68,518.93 798.86,519.29 808.71,519.29C818.56,519.29 828.28,518.93 837.75,518.23C839.94,518.06 841.87,519.72 842.03,521.92C842.19,524.12 840.54,526.04 838.34,526.2C828.68,526.92 818.71,527.28 808.71,527.28L808.7,527.29ZM738.43,521.84C738.23,521.84 738.04,521.83 737.84,521.8C718.9,518.98 698.99,515.01 678.66,509.99C676.52,509.46 675.21,507.29 675.74,505.15C676.27,503.01 678.44,501.69 680.58,502.23C700.67,507.19 720.33,511.12 739.02,513.9C741.2,514.23 742.71,516.26 742.39,518.45C742.1,520.44 740.39,521.86 738.44,521.86L738.43,521.84ZM877.56,521.14C875.67,521.14 873.99,519.79 873.63,517.87C873.23,515.7 874.66,513.61 876.83,513.21C896.31,509.6 914.95,504.48 933.83,497.55C935.9,496.79 938.2,497.85 938.96,499.93C939.72,502 938.66,504.3 936.58,505.06C917.27,512.14 898.2,517.38 878.28,521.07C878.03,521.12 877.79,521.14 877.55,521.14L877.56,521.14ZM641.06,499.51C640.68,499.51 640.29,499.45 639.91,499.34C621.57,493.82 602.36,487.37 582.82,480.17C580.75,479.41 579.69,477.11 580.45,475.03C581.21,472.96 583.51,471.9 585.59,472.66C604.98,479.81 624.04,486.21 642.22,491.68C644.34,492.32 645.53,494.55 644.9,496.66C644.38,498.39 642.79,499.51 641.07,499.51L641.06,499.51ZM971.93,489.64C970.45,489.64 969.02,488.81 968.33,487.39C967.36,485.4 968.19,483.01 970.18,482.04C986.77,473.98 1003.72,464.44 1021.98,452.87C1023.85,451.69 1026.32,452.24 1027.5,454.11C1028.68,455.98 1028.13,458.45 1026.26,459.63C1007.74,471.36 990.54,481.05 973.68,489.24C973.12,489.51 972.52,489.64 971.93,489.64ZM0,475.14C-1.43,475.14 -2.82,474.37 -3.54,473.01C-4.57,471.06 -3.83,468.64 -1.88,467.6C-1.06,467.17 18.56,456.84 54.43,444.97C56.53,444.28 58.79,445.41 59.48,447.51C60.17,449.61 59.04,451.87 56.94,452.56C46.639,455.973 37.664,459.275 30.116,462.242C11.901,469.4 2.001,474.599 1.86,474.67C1.26,474.99 0.62,475.14 -0.01,475.14L0,475.14ZM546.68,466.51C546.24,466.51 545.79,466.44 545.35,466.28C526.5,459.64 507.34,453.61 488.39,448.36C486.26,447.77 485.01,445.57 485.6,443.44C486.19,441.31 488.39,440.06 490.52,440.65C509.64,445.95 528.98,452.04 548,458.74C550.08,459.47 551.18,461.76 550.44,463.84C549.86,465.48 548.32,466.51 546.67,466.51L546.68,466.51ZM94.06,441.45C92.28,441.45 90.66,440.26 90.19,438.46C89.63,436.32 90.91,434.14 93.05,433.58C112.18,428.59 132.04,424.35 152.06,420.97C154.24,420.6 156.3,422.07 156.67,424.25C157.04,426.43 155.57,428.49 153.39,428.86C133.59,432.2 113.97,436.4 95.06,441.33C94.72,441.42 94.38,441.46 94.05,441.46L94.06,441.45ZM450.69,438.73C450.4,438.73 450.1,438.7 449.8,438.63C430.35,434.22 410.62,430.49 391.15,427.54C388.97,427.21 387.46,425.17 387.79,422.99C388.12,420.8 390.15,419.3 392.34,419.63C412.01,422.6 431.93,426.37 451.57,430.82C453.72,431.31 455.07,433.45 454.58,435.61C454.16,437.47 452.51,438.73 450.68,438.73L450.69,438.73ZM1057.34,438.06C1056.08,438.06 1054.83,437.46 1054.06,436.35C1052.8,434.54 1053.24,432.04 1055.05,430.78C1070.18,420.23 1084.95,409.43 1100.59,398L1103.64,395.77C1105.42,394.47 1107.93,394.86 1109.23,396.64C1110.53,398.42 1110.14,400.93 1108.36,402.23L1105.31,404.46C1089.63,415.92 1074.83,426.73 1059.63,437.34C1058.93,437.83 1058.13,438.06 1057.34,438.06ZM192.35,423.37C190.34,423.37 188.61,421.86 188.38,419.81C188.13,417.61 189.71,415.64 191.91,415.39C211.71,413.17 231.95,411.73 252.07,411.12C254.29,411.04 256.12,412.79 256.19,415C256.26,417.21 254.52,419.05 252.31,419.12C232.41,419.73 212.38,421.15 192.79,423.34C192.64,423.36 192.49,423.37 192.34,423.37L192.35,423.37ZM352.07,422.62C351.94,422.62 351.8,422.62 351.67,422.6C331.86,420.62 311.82,419.39 292.11,418.96C289.9,418.91 288.15,417.08 288.2,414.87C288.25,412.66 290.13,410.89 292.29,410.96C312.21,411.4 332.46,412.64 352.47,414.64C354.67,414.86 356.27,416.82 356.05,419.02C355.84,421.08 354.1,422.62 352.07,422.62ZM1138.39,379.57C1137.14,379.57 1135.91,378.99 1135.13,377.89C1133.85,376.09 1134.27,373.59 1136.07,372.31C1154.71,359.03 1170.52,348.29 1185.83,338.5C1187.69,337.31 1190.17,337.85 1191.35,339.72C1192.54,341.58 1192,344.05 1190.13,345.24C1174.93,354.95 1159.23,365.63 1140.7,378.82C1140,379.32 1139.19,379.56 1138.38,379.56L1138.39,379.57ZM1222.16,325.17C1220.77,325.17 1219.42,324.44 1218.68,323.15C1217.59,321.23 1218.25,318.79 1220.17,317.69C1238.27,307.36 1255.82,298.36 1273.81,290.18C1275.82,289.27 1278.19,290.15 1279.11,292.17C1280.03,294.18 1279.14,296.55 1277.13,297.47C1259.36,305.55 1242.03,314.44 1224.14,324.65C1223.51,325.01 1222.83,325.18 1222.16,325.18L1222.16,325.17ZM1312.34,282.51C1310.72,282.51 1309.2,281.52 1308.6,279.92C1307.82,277.85 1308.87,275.55 1310.93,274.77C1329.57,267.75 1348.89,261.56 1368.34,256.39C1370.47,255.82 1372.67,257.09 1373.23,259.23C1373.79,261.37 1372.53,263.56 1370.39,264.12C1351.2,269.23 1332.14,275.33 1313.74,282.26C1313.28,282.43 1312.8,282.52 1312.33,282.52L1312.34,282.51ZM1408.25,255.23C1406.38,255.23 1404.71,253.91 1404.33,252.01C1403.9,249.84 1405.31,247.74 1407.47,247.31C1426.68,243.49 1446.71,240.42 1467,238.2C1469.21,237.96 1471.17,239.54 1471.41,241.74C1471.65,243.94 1470.07,245.91 1467.87,246.15C1447.82,248.35 1428.02,251.37 1409.03,255.15C1408.77,255.2 1408.5,255.23 1408.25,255.23ZM1507.22,242.88C1505.12,242.88 1503.35,241.24 1503.23,239.11C1503.1,236.9 1504.79,235.01 1507,234.89C1522.9,233.98 1539.38,233.52 1555.98,233.52L1556.01,233.52C1559.71,233.52 1563.49,233.54 1567.22,233.59C1569.43,233.62 1571.2,235.43 1571.17,237.64C1571.14,239.85 1569.3,241.65 1567.12,241.59C1563.42,241.55 1559.68,241.52 1556.01,241.52L1555.98,241.52C1539.53,241.52 1523.21,241.98 1507.45,242.87L1507.22,242.87L1507.22,242.88ZM1607.15,242.16C1604.98,242.16 1603.19,240.42 1603.15,238.23C1603.11,236.02 1604.87,234.2 1607.07,234.16C1627.08,233.79 1646.92,231.88 1666.06,228.48C1668.24,228.09 1670.31,229.54 1670.7,231.72C1671.09,233.9 1669.64,235.97 1667.46,236.36C1647.91,239.83 1627.65,241.78 1607.22,242.16L1607.14,242.16L1607.15,242.16ZM1705.66,227.28C1703.93,227.28 1702.34,226.15 1701.83,224.41C1701.21,222.29 1702.42,220.07 1704.54,219.44C1723.42,213.88 1742,206.67 1759.77,198C1761.75,197.03 1764.15,197.86 1765.12,199.84C1766.09,201.83 1765.26,204.22 1763.28,205.19C1745.11,214.05 1726.11,221.43 1706.81,227.11C1706.43,227.22 1706.05,227.27 1705.68,227.27L1705.66,227.28Z" style="fill:rgb(94,190,193);fill-rule:nonzero;"/>
    <g>
        <path d="M0,515.14C-1.43,515.14 -2.82,514.37 -3.54,513.01C-4.57,511.06 -3.83,508.64 -1.88,507.6C-1.48,507.39 8.05,502.36 25.94,495.28C27.99,494.47 30.32,495.47 31.13,497.53C31.94,499.58 30.94,501.91 28.88,502.72C11.45,509.62 1.95,514.62 1.86,514.67C1.26,514.99 0.62,515.14 -0.01,515.14L0,515.14Z" style="fill:rgb(58,149,152);fill-rule:nonzero;"/>
        <path d="M798.63,567.17L798.53,567.17C779.49,566.72 759.47,564.97 739.02,561.97C736.83,561.65 735.32,559.62 735.64,557.43C735.96,555.24 737.98,553.73 740.18,554.05C760.31,557 780,558.72 798.72,559.16C800.93,559.21 802.68,561.05 802.62,563.25C802.57,565.43 800.79,567.16 798.62,567.16L798.63,567.17ZM838.04,566.22C835.96,566.22 834.21,564.62 834.05,562.52C833.89,560.32 835.54,558.4 837.74,558.24C857.41,556.78 876.82,553.75 895.46,549.23C897.62,548.71 899.77,550.03 900.29,552.17C900.81,554.32 899.49,556.48 897.35,557C878.29,561.62 858.43,564.72 838.33,566.21C838.23,566.21 838.13,566.22 838.03,566.22L838.04,566.22ZM700.72,554.97C700.44,554.97 700.16,554.94 699.88,554.88C681.38,550.92 661.97,545.92 642.17,540.02C640.05,539.39 638.85,537.16 639.48,535.04C640.11,532.92 642.34,531.72 644.46,532.35C664.05,538.19 683.26,543.13 701.56,547.05C703.72,547.51 705.1,549.64 704.63,551.8C704.23,553.68 702.57,554.96 700.72,554.96L700.72,554.97ZM934.13,545.7C932.5,545.7 930.96,544.69 930.37,543.07C929.62,540.99 930.69,538.7 932.76,537.94C950.48,531.5 967.95,523.63 986.16,513.87C988.11,512.83 990.53,513.56 991.57,515.51C992.61,517.46 991.88,519.88 989.93,520.92C971.38,530.86 953.57,538.88 935.49,545.46C935.04,545.62 934.58,545.7 934.12,545.7L934.13,545.7ZM605.7,528.08C605.27,528.08 604.83,528.01 604.4,527.86C592.8,523.87 580.8,519.49 568.73,514.86C562.09,512.31 555.35,509.82 548.69,507.45C546.61,506.71 545.52,504.42 546.27,502.34C547.01,500.26 549.3,499.18 551.38,499.92C558.09,502.31 564.89,504.83 571.59,507.4C583.58,512 595.5,516.34 607.01,520.3C609.1,521.02 610.21,523.3 609.49,525.38C608.92,527.04 607.37,528.08 605.71,528.08L605.7,528.08ZM1022.14,501.49C1020.81,501.49 1019.51,500.83 1018.75,499.62C1017.57,497.75 1018.14,495.28 1020.01,494.1C1034.44,485.03 1049.96,474.51 1068.86,461C1070.66,459.72 1073.15,460.13 1074.44,461.93C1075.73,463.73 1075.31,466.23 1073.51,467.51C1054.48,481.11 1038.83,491.71 1024.26,500.87C1023.6,501.29 1022.86,501.48 1022.14,501.48L1022.14,501.49ZM512.52,495.23C512.13,495.23 511.74,495.17 511.34,495.05C492.48,489.25 473.31,484.08 454.38,479.67C452.23,479.17 450.89,477.02 451.39,474.87C451.89,472.72 454.04,471.38 456.19,471.88C475.3,476.33 494.65,481.56 513.69,487.41C515.8,488.06 516.99,490.3 516.34,492.41C515.81,494.13 514.23,495.24 512.52,495.24L512.52,495.23ZM64.7,489.86C63,489.86 61.42,488.77 60.88,487.06C60.22,484.95 61.39,482.71 63.5,482.05C82,476.25 101.41,471.15 121.19,466.89C123.34,466.43 125.48,467.8 125.94,469.96C126.4,472.12 125.03,474.25 122.87,474.71C103.33,478.92 84.16,483.96 65.89,489.68C65.49,489.8 65.09,489.86 64.69,489.86L64.7,489.86ZM416.6,471.73C416.36,471.73 416.12,471.71 415.88,471.66C396.51,468.11 376.87,465.26 357.51,463.18C355.31,462.94 353.72,460.97 353.96,458.78C354.2,456.58 356.18,455 358.36,455.23C377.91,457.33 397.75,460.21 417.32,463.79C419.49,464.19 420.93,466.27 420.53,468.44C420.18,470.37 418.49,471.72 416.6,471.72L416.6,471.73ZM160.89,467.58C158.95,467.58 157.25,466.17 156.94,464.2C156.6,462.02 158.09,459.97 160.27,459.63C179.71,456.58 199.63,454.29 219.49,452.81C221.69,452.65 223.61,454.3 223.78,456.5C223.94,458.7 222.29,460.62 220.09,460.79C200.45,462.25 180.74,464.52 161.52,467.53C161.31,467.56 161.1,467.58 160.9,467.58L160.89,467.58ZM318.54,459.98L318.31,459.98C303.99,459.17 289.51,458.76 275.27,458.76C269.99,458.76 264.63,458.82 259.35,458.93L259.26,458.93C257.09,458.93 255.31,457.19 255.26,455.01C255.21,452.8 256.97,450.97 259.18,450.93C264.51,450.82 269.93,450.76 275.27,450.76C289.66,450.76 304.3,451.17 318.76,451.99C320.97,452.11 322.65,454 322.53,456.21C322.41,458.34 320.65,459.98 318.54,459.98ZM1103.17,445.07C1101.94,445.07 1100.72,444.5 1099.94,443.43C1098.64,441.65 1099.03,439.14 1100.81,437.84C1116.31,426.52 1132.33,414.81 1148.99,403.18C1150.8,401.92 1153.3,402.36 1154.56,404.17C1155.82,405.98 1155.38,408.48 1153.57,409.74C1136.98,421.32 1120.99,433 1105.53,444.3C1104.82,444.82 1103.99,445.07 1103.17,445.07ZM1184.05,388.39C1182.74,388.39 1181.45,387.74 1180.69,386.56C1179.49,384.71 1180.02,382.23 1181.88,381.03C1199.57,369.59 1216.3,359.62 1233.01,350.54C1234.95,349.48 1237.38,350.2 1238.43,352.15C1239.48,354.09 1238.77,356.52 1236.82,357.57C1220.28,366.55 1203.73,376.42 1186.21,387.75C1185.54,388.18 1184.79,388.39 1184.04,388.39L1184.05,388.39ZM1270.15,340.27C1268.64,340.27 1267.2,339.42 1266.52,337.96C1265.59,335.96 1266.45,333.58 1268.45,332.64C1286.51,324.22 1305.07,316.64 1323.62,310.13C1325.71,309.4 1327.99,310.5 1328.72,312.58C1329.45,314.66 1328.35,316.95 1326.27,317.68C1307.97,324.1 1289.65,331.58 1271.83,339.89C1271.28,340.15 1270.71,340.27 1270.14,340.27L1270.15,340.27ZM1362.58,306.08C1360.83,306.08 1359.22,304.92 1358.73,303.15C1358.14,301.02 1359.38,298.82 1361.51,298.22C1380.28,292.99 1399.82,288.54 1419.57,284.99C1421.74,284.6 1423.82,286.04 1424.21,288.22C1424.6,290.39 1423.15,292.47 1420.98,292.86C1401.48,296.36 1382.19,300.76 1363.66,305.92C1363.3,306.02 1362.94,306.07 1362.58,306.07L1362.58,306.08Z" style="fill:rgb(58,149,152);fill-rule:nonzero;"/>
    </g>
    <path d="M808.7,607.29C798.67,607.29 788.3,606.92 777.9,606.2C775.7,606.05 774.03,604.14 774.19,601.93C774.34,599.73 776.27,598.06 778.46,598.22C788.68,598.93 798.86,599.29 808.71,599.29C818.56,599.29 828.28,598.93 837.75,598.23C839.94,598.07 841.87,599.72 842.03,601.92C842.19,604.12 840.54,606.04 838.34,606.2C828.68,606.92 818.71,607.28 808.71,607.28L808.7,607.29ZM738.43,601.84C738.23,601.84 738.04,601.83 737.84,601.8C718.9,598.98 698.99,595.01 678.66,589.99C676.52,589.46 675.21,587.29 675.74,585.15C676.27,583.01 678.44,581.69 680.58,582.23C700.67,587.19 720.33,591.12 739.02,593.9C741.2,594.23 742.71,596.26 742.39,598.45C742.1,600.44 740.39,601.86 738.44,601.86L738.43,601.84ZM877.56,601.14C875.67,601.14 873.99,599.79 873.63,597.87C873.23,595.7 874.66,593.61 876.83,593.21C896.31,589.6 914.95,584.48 933.83,577.55C935.9,576.79 938.2,577.85 938.96,579.93C939.72,582 938.66,584.3 936.58,585.06C917.27,592.14 898.2,597.38 878.28,601.07C878.03,601.12 877.79,601.14 877.55,601.14L877.56,601.14ZM641.06,579.51C640.68,579.51 640.29,579.45 639.91,579.34C621.57,573.82 602.36,567.37 582.82,560.17C580.75,559.41 579.69,557.11 580.45,555.03C581.21,552.96 583.51,551.9 585.59,552.66C604.98,559.81 624.04,566.21 642.22,571.68C644.34,572.32 645.53,574.55 644.9,576.66C644.38,578.39 642.79,579.51 641.07,579.51L641.06,579.51ZM971.93,569.64C970.45,569.64 969.02,568.81 968.33,567.39C967.36,565.4 968.19,563.01 970.18,562.04C986.77,553.98 1003.72,544.44 1021.98,532.87C1023.85,531.69 1026.32,532.24 1027.5,534.11C1028.68,535.98 1028.13,538.45 1026.26,539.63C1007.74,551.36 990.54,561.05 973.68,569.24C973.12,569.51 972.52,569.64 971.93,569.64ZM0,555.14C-1.43,555.14 -2.82,554.37 -3.54,553.01C-4.57,551.06 -3.83,548.64 -1.88,547.6C-1.06,547.17 18.56,536.84 54.43,524.97C56.53,524.27 58.79,525.41 59.48,527.51C60.17,529.61 59.04,531.87 56.94,532.56C21.78,544.21 2.06,554.57 1.86,554.67C1.26,554.99 0.62,555.14 -0.01,555.14L0,555.14ZM546.68,546.51C546.24,546.51 545.79,546.44 545.35,546.28C526.5,539.64 507.34,533.61 488.39,528.36C486.26,527.77 485.01,525.57 485.6,523.44C486.19,521.31 488.39,520.06 490.52,520.65C509.64,525.95 528.98,532.04 548,538.74C550.08,539.47 551.18,541.76 550.44,543.84C549.86,545.48 548.32,546.51 546.67,546.51L546.68,546.51ZM94.06,521.45C92.28,521.45 90.66,520.26 90.19,518.46C89.63,516.32 90.91,514.14 93.05,513.58C112.18,508.59 132.04,504.35 152.06,500.97C154.24,500.6 156.3,502.07 156.67,504.25C157.04,506.43 155.57,508.49 153.39,508.86C133.59,512.2 113.97,516.4 95.06,521.33C94.72,521.42 94.38,521.46 94.05,521.46L94.06,521.45ZM450.69,518.73C450.4,518.73 450.1,518.7 449.8,518.63C430.35,514.22 410.62,510.49 391.15,507.54C388.97,507.21 387.46,505.17 387.79,502.99C388.12,500.8 390.15,499.3 392.34,499.63C412.01,502.6 431.93,506.37 451.57,510.82C453.72,511.31 455.07,513.45 454.58,515.61C454.16,517.47 452.51,518.73 450.68,518.73L450.69,518.73ZM1057.34,518.06C1056.08,518.06 1054.83,517.46 1054.06,516.35C1052.8,514.54 1053.24,512.04 1055.05,510.78C1070.18,500.23 1084.95,489.43 1100.59,478L1103.64,475.77C1105.42,474.47 1107.93,474.86 1109.23,476.64C1110.53,478.42 1110.14,480.93 1108.36,482.23L1105.31,484.46C1089.63,495.92 1074.83,506.73 1059.63,517.34C1058.93,517.83 1058.13,518.06 1057.34,518.06ZM192.35,503.37C190.34,503.37 188.61,501.86 188.38,499.81C188.13,497.61 189.71,495.64 191.91,495.39C211.71,493.17 231.95,491.73 252.07,491.12C254.29,491.05 256.12,492.79 256.19,495C256.26,497.21 254.52,499.05 252.31,499.12C232.41,499.73 212.38,501.15 192.79,503.34C192.64,503.36 192.49,503.37 192.34,503.37L192.35,503.37ZM352.07,502.62C351.94,502.62 351.8,502.62 351.67,502.6C331.86,500.62 311.82,499.39 292.11,498.96C289.9,498.91 288.15,497.08 288.2,494.87C288.25,492.69 290.03,490.96 292.2,490.96L292.29,490.96C312.21,491.4 332.46,492.64 352.47,494.64C354.67,494.86 356.27,496.82 356.05,499.02C355.84,501.08 354.1,502.62 352.07,502.62ZM1138.39,459.57C1137.14,459.57 1135.91,458.99 1135.13,457.89C1133.85,456.09 1134.27,453.59 1136.07,452.31C1154.71,439.03 1170.52,428.29 1185.83,418.5C1187.69,417.31 1190.16,417.85 1191.35,419.72C1192.54,421.58 1192,424.05 1190.13,425.24C1174.93,434.96 1159.23,445.63 1140.7,458.82C1140,459.32 1139.19,459.56 1138.38,459.56L1138.39,459.57Z" style="fill:rgb(93,189,193);fill-rule:nonzero;"/>
    <g>
        <path d="M0,595.14C-1.43,595.14 -2.82,594.37 -3.54,593.01C-4.57,591.06 -3.83,588.64 -1.88,587.6C-1.48,587.39 8.05,582.36 25.94,575.28C27.99,574.47 30.32,575.47 31.13,577.53C31.94,579.58 30.94,581.91 28.88,582.72C11.45,589.62 1.95,594.62 1.86,594.67C1.26,594.99 0.62,595.14 -0.01,595.14L0,595.14Z" style="fill:rgb(148,211,214);fill-rule:nonzero;"/>
        <path d="M798.62,647.17L798.52,647.17C779.48,646.72 759.46,644.97 739.01,641.97C736.82,641.65 735.31,639.62 735.63,637.43C735.95,635.24 737.97,633.73 740.17,634.05C760.29,637 779.99,638.72 798.71,639.17C800.92,639.22 802.67,641.06 802.61,643.26C802.56,645.44 800.78,647.17 798.61,647.17L798.62,647.17ZM838.03,646.22C835.95,646.22 834.2,644.62 834.04,642.52C833.88,640.32 835.53,638.4 837.73,638.24C857.4,636.78 876.81,633.75 895.45,629.23C897.61,628.71 899.76,630.03 900.28,632.17C900.8,634.32 899.48,636.48 897.34,637C878.28,641.62 858.42,644.72 838.32,646.21C838.22,646.21 838.12,646.22 838.02,646.22L838.03,646.22ZM700.71,634.97C700.43,634.97 700.15,634.94 699.87,634.88C681.37,630.92 661.96,625.92 642.16,620.02C640.04,619.39 638.84,617.16 639.47,615.04C640.1,612.92 642.33,611.72 644.45,612.35C664.04,618.19 683.25,623.13 701.55,627.05C703.71,627.51 705.09,629.64 704.62,631.8C704.22,633.68 702.56,634.96 700.71,634.96L700.71,634.97ZM605.68,608.09C605.25,608.09 604.81,608.02 604.38,607.87C592.76,603.87 580.76,599.5 568.71,594.87C562.07,592.33 555.33,589.83 548.67,587.46C546.59,586.72 545.5,584.43 546.25,582.35C546.99,580.27 549.28,579.19 551.36,579.93C558.08,582.33 564.88,584.84 571.57,587.41C583.54,592 595.45,596.34 606.99,600.31C609.08,601.03 610.19,603.31 609.47,605.39C608.9,607.05 607.35,608.09 605.69,608.09L605.68,608.09ZM512.5,575.24C512.11,575.24 511.72,575.18 511.32,575.06C492.46,569.26 473.29,564.09 454.36,559.68C452.21,559.18 450.87,557.03 451.37,554.88C451.87,552.73 454.02,551.39 456.17,551.89C475.28,556.34 494.63,561.57 513.67,567.42C515.78,568.07 516.97,570.31 516.32,572.42C515.79,574.14 514.21,575.25 512.5,575.25L512.5,575.24ZM64.68,569.87C62.98,569.87 61.4,568.78 60.86,567.07C60.2,564.96 61.37,562.72 63.48,562.06C81.98,556.26 101.39,551.16 121.17,546.9C123.32,546.44 125.46,547.81 125.92,549.97C126.38,552.13 125.01,554.26 122.85,554.72C103.31,558.93 84.14,563.97 65.87,569.69C65.47,569.81 65.07,569.87 64.67,569.87L64.68,569.87ZM416.58,551.74C416.34,551.74 416.1,551.72 415.86,551.67C396.49,548.12 376.85,545.27 357.49,543.19C355.29,542.95 353.7,540.98 353.94,538.79C354.18,536.59 356.14,535 358.35,535.24C377.9,537.34 397.74,540.22 417.31,543.8C419.48,544.2 420.92,546.28 420.52,548.45C420.17,550.38 418.48,551.73 416.59,551.73L416.58,551.74ZM160.87,547.59C158.93,547.59 157.23,546.18 156.92,544.21C156.58,542.03 158.07,539.98 160.25,539.64C179.69,536.59 199.61,534.3 219.47,532.82C221.67,532.66 223.59,534.31 223.76,536.51C223.92,538.71 222.27,540.63 220.07,540.8C200.43,542.26 180.72,544.53 161.5,547.54C161.29,547.57 161.08,547.59 160.88,547.59L160.87,547.59ZM318.52,539.99L318.29,539.99C303.97,539.18 289.49,538.77 275.25,538.77C269.96,538.77 264.6,538.83 259.33,538.94C257.15,538.99 255.29,537.23 255.25,535.03C255.2,532.82 256.96,530.99 259.17,530.95C264.5,530.84 269.91,530.78 275.26,530.78C289.65,530.78 304.29,531.19 318.75,532.01C320.96,532.13 322.64,534.02 322.52,536.23C322.4,538.36 320.64,540 318.53,540L318.52,539.99Z" style="fill:rgb(148,211,214);fill-rule:nonzero;"/>
    </g>
</svg>
